<svg width="1101" height="778" viewBox="0 0 1101 778" fill="none" xmlns="http://www.w3.org/2000/svg">
<g clip-path="url(#clip0_120_280)">
<g filter="url(#filter0_f_120_280)">
<path d="M601 250C601 111.929 712.929 0 851 0C989.071 0 1101 111.929 1101 250C1101 388.071 989.071 500 851 500C712.929 500 601 388.071 601 250Z" fill="url(#paint0_linear_120_280)"/>
</g>
<g filter="url(#filter1_f_120_280)">
<path d="M0 578C0 467.543 89.5431 378 200 378C310.457 378 400 467.543 400 578C400 688.457 310.457 778 200 778C89.5431 778 0 688.457 0 578Z" fill="url(#paint1_linear_120_280)"/>
</g>
</g>
<defs>
<filter id="filter0_f_120_280" x="473" y="-128" width="756" height="756" filterUnits="userSpaceOnUse" color-interpolation-filters="sRGB">
<feFlood flood-opacity="0" result="BackgroundImageFix"/>
<feBlend mode="normal" in="SourceGraphic" in2="BackgroundImageFix" result="shape"/>
<feGaussianBlur stdDeviation="64" result="effect1_foregroundBlur_120_280"/>
</filter>
<filter id="filter1_f_120_280" x="-128" y="250" width="656" height="656" filterUnits="userSpaceOnUse" color-interpolation-filters="sRGB">
<feFlood flood-opacity="0" result="BackgroundImageFix"/>
<feBlend mode="normal" in="SourceGraphic" in2="BackgroundImageFix" result="shape"/>
<feGaussianBlur stdDeviation="64" result="effect1_foregroundBlur_120_280"/>
</filter>
<linearGradient id="paint0_linear_120_280" x1="601" y1="0" x2="1101" y2="500" gradientUnits="userSpaceOnUse">
<stop stop-color="#FF637E" stop-opacity="0.1"/>
<stop offset="1" stop-color="#C27AFF" stop-opacity="0.1"/>
</linearGradient>
<linearGradient id="paint1_linear_120_280" x1="0" y1="778" x2="400" y2="378" gradientUnits="userSpaceOnUse">
<stop stop-color="#51A2FF" stop-opacity="0.1"/>
<stop offset="1" stop-color="#C27AFF" stop-opacity="0.1"/>
</linearGradient>
<clipPath id="clip0_120_280">
<rect width="1101" height="778" fill="white"/>
</clipPath>
</defs>
</svg>
