<svg width="240" height="128" viewBox="0 0 240 128" fill="none" xmlns="http://www.w3.org/2000/svg">
<mask id="mask0_3_2356" style="mask-type:luminance" maskUnits="userSpaceOnUse" x="0" y="0" width="240" height="128">
<path d="M240 0H0V127.335H240V0Z" fill="white"/>
</mask>
<g mask="url(#mask0_3_2356)">
<path d="M227.336 76.7563C218.854 96.8532 202.908 114.46 180.758 122.198C177.877 123.203 174.935 124.055 171.947 124.751C156.145 128.438 138.856 127.156 124.289 120.437C118.106 117.584 112.468 113.813 106.263 111C100.058 108.188 92.972 106.347 86.2182 107.735C80.4032 108.93 75.4969 112.356 70.5571 115.408C58.9121 122.603 44.91 128.296 31.1207 125.825C24.7757 124.69 18.5277 121.544 15.5809 116.286C9.06792 104.661 21.3512 90.8402 18.8636 77.9842C17.2717 69.7562 10.001 63.5947 5.48109 56.3333C-2.25428 43.9128 -1.33985 27.4142 7.72986 15.7759C16.7996 4.13755 33.543 -2.03598 48.8944 0.604205C67.6141 3.82503 81.7674 18.3221 99.9702 23.4522C111.354 26.6577 123.714 25.7013 134.586 21.4797C152.153 14.6573 176.286 4.1939 196.055 5.89824C206.567 6.80506 216.878 11.0744 223.816 18.3648C232.588 27.5679 235.217 40.6339 233.754 52.7692C232.75 60.984 230.593 69.0462 227.336 76.7563Z" fill="url(#paint0_linear_3_2356)"/>
<path d="M232.979 92.6525C232.589 92.652 232.201 92.6091 231.822 92.5244C230.624 92.2549 229.585 91.5775 228.915 90.63C228.245 89.6825 227.995 88.5366 228.217 87.4264C228.437 86.3162 229.114 85.3252 230.107 84.6557C231.1 83.9865 232.335 83.6892 233.56 83.8248C234.784 83.9604 235.905 84.5184 236.695 85.3851C237.486 86.2518 237.884 87.3619 237.811 88.4885C237.736 89.6151 237.195 90.6734 236.297 91.4471C235.4 92.2211 234.213 92.6521 232.979 92.6525ZM232.979 85.7907C232.337 85.7929 231.72 86.0098 231.24 86.4004C230.76 86.791 230.454 87.3284 230.378 87.9114C230.303 88.4943 230.462 89.0826 230.828 89.5655C231.191 90.0485 231.736 90.3926 232.36 90.5332C232.72 90.6126 233.095 90.6211 233.461 90.5583C233.825 90.4956 234.17 90.3629 234.474 90.1689C234.778 89.9751 235.036 89.7244 235.226 89.4334C235.416 89.1424 235.54 88.8177 235.583 88.4808C235.627 88.1437 235.592 87.8019 235.482 87.478C235.372 87.154 235.187 86.8552 234.941 86.6011C234.694 86.3469 234.394 86.1434 234.054 86.0037C233.716 85.864 233.351 85.7914 232.979 85.7907Z" fill="#FFA1AD"/>
<path d="M228.562 97.3502C228.836 96.3117 228.14 95.2655 227.004 95.0138C225.869 94.7619 224.727 95.3998 224.451 96.4383C224.177 97.4767 224.873 98.5227 226.007 98.7746C227.144 99.0264 228.286 98.3887 228.562 97.3502Z" fill="#FFA1AD"/>
<path d="M10.2994 92.2303C9.01759 92.2047 7.79857 91.7175 6.90698 90.8744C6.01537 90.0313 5.52314 88.9004 5.53716 87.7273C5.55115 86.5541 6.07027 85.4333 6.9818 84.6083C7.8933 83.7831 9.12366 83.3205 10.4058 83.3205C11.6879 83.3205 12.9182 83.7831 13.8297 84.6083C14.7413 85.4333 15.2604 86.5541 15.2744 87.7273C15.2884 88.9004 14.7961 90.0313 13.9046 90.8744C13.0129 91.7175 11.7939 92.2047 10.5121 92.2303H10.2994ZM10.2994 85.3703H10.1893C9.497 85.3841 8.83857 85.6471 8.35694 86.1024C7.87533 86.5577 7.6094 87.1684 7.6169 87.8021C7.62438 88.4357 7.9047 89.0409 8.39699 89.4867C8.88925 89.9322 9.55375 90.1822 10.2462 90.1822C10.9386 90.1822 11.6031 89.9322 12.0954 89.4867C12.5877 89.0409 12.868 88.4357 12.8755 87.8021C12.883 87.1684 12.6171 86.5577 12.1355 86.1024C11.6538 85.6471 10.9954 85.3841 10.3031 85.3703H10.2994Z" fill="#FFA1AD"/>
<path d="M6.82812 99.7072C7.99479 99.6611 8.89977 98.7584 8.84944 97.6907C8.7991 96.6232 7.81254 95.7949 6.64587 95.841C5.47922 95.8871 4.57425 96.7899 4.62456 97.8576C4.67489 98.9251 5.66145 99.7533 6.82812 99.7072Z" fill="#FFA1AD"/>
<path d="M132.328 20.1954C131.166 20.1962 130.042 19.8166 129.16 19.125C128.277 18.4333 127.695 17.4754 127.517 16.4247C127.34 15.3739 127.579 14.2998 128.192 13.3966C128.805 12.4935 129.752 11.821 130.86 11.501C131.967 11.1809 133.164 11.2344 134.233 11.6517C135.301 12.0691 136.171 12.8227 136.685 13.7762C137.199 14.7298 137.323 15.8202 137.034 16.8501C136.746 17.88 136.064 18.7814 135.112 19.391C134.296 19.9136 133.324 20.1944 132.328 20.1954ZM132.313 13.337C131.633 13.3363 130.979 13.5758 130.488 14.0055C129.996 14.4351 129.705 15.0218 129.674 15.6433C129.644 16.2647 129.876 16.873 130.324 17.3414C130.771 17.8096 131.399 18.1018 132.076 18.157C132.753 18.2122 133.427 18.0262 133.958 17.6375C134.489 17.249 134.836 16.6879 134.926 16.0713C135.016 15.4547 134.842 14.8301 134.441 14.3277C134.04 13.8253 133.443 13.4839 132.774 13.3746C132.622 13.3497 132.467 13.3372 132.313 13.337Z" fill="#FFA1AD"/>
<path d="M122.401 19.9522C123.357 19.3386 123.588 18.1321 122.918 17.257C122.247 16.3822 120.929 16.1703 119.973 16.7838C119.017 17.3974 118.785 18.6039 119.456 19.479C120.126 20.3539 121.445 20.5658 122.401 19.9522Z" fill="#FFA1AD"/>
<path d="M239.992 43.1476C239.992 41.2699 239.177 39.4689 237.727 38.1411C236.275 36.8132 234.308 36.0672 232.255 36.0672C232.083 36.0672 231.914 36.0672 231.746 36.0826C231.757 35.9289 231.762 35.7735 231.762 35.6164C231.762 34.6102 231.527 33.6154 231.074 32.6987C230.62 31.7818 229.96 30.964 229.133 30.2996C228.306 29.6353 227.336 29.1397 226.283 28.846C225.233 28.5521 224.124 28.4669 223.034 28.5958C221.943 28.7249 220.896 29.0651 219.959 29.5938C219.024 30.1227 218.221 30.828 217.607 31.6626C216.993 32.4974 216.581 33.4423 216.396 34.4343C216.213 35.4265 216.262 36.4431 216.542 37.4164C215.607 36.7959 214.532 36.3748 213.395 36.184C212.259 35.9933 211.091 36.0379 209.977 36.3144C208.861 36.5907 207.829 37.0921 206.951 37.7817C206.076 38.4712 205.382 39.3314 204.915 40.2991C204.451 41.2668 204.229 42.3174 204.266 43.374C204.303 44.4306 204.598 45.466 205.13 46.4048C205.66 47.3434 206.414 48.1612 207.336 48.7982C208.258 49.4354 209.323 49.8755 210.456 50.0862C210.919 51.2078 211.684 52.2038 212.683 52.9807C213.679 53.7574 214.877 54.2897 216.159 54.5275C217.443 54.7654 218.774 54.7012 220.022 54.3409C221.271 53.9804 222.4 53.3355 223.303 52.4668C224.227 53.1048 225.294 53.5451 226.429 53.7551C227.564 53.9654 228.734 53.9401 229.855 53.6812C230.979 53.4223 232.022 52.9363 232.912 52.2593C233.802 51.5822 234.513 50.731 234.997 49.7686C236.465 49.2591 237.729 48.353 238.623 47.1704C239.515 45.9878 239.992 44.5848 239.992 43.1476Z" fill="white"/>
<path d="M35.7281 26.1283C35.729 25.1981 35.5297 24.2767 35.1415 23.417C34.7532 22.5574 34.1836 21.7761 33.4651 21.1179C32.7468 20.4597 31.8938 19.9375 30.9547 19.5813C30.0158 19.2248 29.0092 19.0413 27.9927 19.0411C27.821 19.0411 27.6512 19.0411 27.4832 19.0565C27.4944 18.9028 27.5 18.7474 27.5 18.5902C27.4998 17.584 27.2653 16.5893 26.8118 15.6724C26.3585 14.7556 25.6967 13.9378 24.8708 13.2735C24.0448 12.6091 23.0734 12.1136 22.0216 11.8198C20.9698 11.526 19.8617 11.4407 18.7711 11.5697C17.6806 11.6987 16.6325 12.0389 15.6969 12.5677C14.7613 13.0965 13.9596 13.8018 13.3453 14.6364C12.731 15.4711 12.3182 16.416 12.1344 17.4081C11.9506 18.4003 12 19.417 12.2794 20.3902C11.3442 19.7696 10.2691 19.3485 9.13297 19.1579C7.9968 18.9671 6.82837 19.0117 5.71343 19.288C4.59851 19.5645 3.56537 20.0659 2.68985 20.7555C1.81432 21.4451 1.11862 22.3053 0.653802 23.2729C0.188987 24.2407 -0.0331509 25.2913 0.00369292 26.3479C0.0405367 27.4043 0.335427 28.4399 0.866721 29.3785C1.39802 30.3172 2.15223 31.1351 3.07402 31.7721C3.99581 32.4091 5.06178 32.8493 6.1937 33.06C6.65629 34.1807 7.42203 35.1756 8.41923 35.9516C9.41643 36.7278 10.6125 37.2596 11.8955 37.4975C13.1785 37.7354 14.5065 37.6713 15.7551 37.3117C17.0038 36.952 18.1322 36.3082 19.035 35.4407C19.9586 36.0787 21.0268 36.5189 22.1609 36.729C23.2949 36.9392 24.4662 36.9139 25.5881 36.6549C26.7101 36.396 27.7544 35.9101 28.644 35.233C29.5336 34.5559 30.246 33.7049 30.7286 32.7424C32.1965 32.234 33.4608 31.3291 34.3538 30.1478C35.2468 28.9666 35.726 27.5647 35.7281 26.1283Z" fill="white"/>
<path d="M178.068 126.874H66.75V124.654H178.068C178.39 124.654 178.699 124.771 178.926 124.979C179.154 125.187 179.281 125.47 179.281 125.764C179.281 126.059 179.154 126.341 178.926 126.549C178.699 126.757 178.39 126.874 178.068 126.874Z" fill="#426572"/>
<path d="M61.771 126.874H54.965C54.6432 126.874 54.3348 126.757 54.1073 126.549C53.8798 126.341 53.752 126.059 53.752 125.764C53.752 125.47 53.8798 125.187 54.1073 124.979C54.3348 124.771 54.6432 124.654 54.965 124.654H61.771C62.0927 124.654 62.4012 124.771 62.6287 124.979C62.8562 125.187 62.984 125.47 62.984 125.764C62.984 126.059 62.8562 126.341 62.6287 126.549C62.4012 126.757 62.0927 126.874 61.771 126.874Z" fill="#426572"/>
<path d="M50.5476 126.874H48.379C48.0573 126.874 47.7488 126.757 47.5213 126.549C47.2938 126.341 47.166 126.059 47.166 125.764C47.166 125.47 47.2938 125.187 47.5213 124.979C47.7488 124.771 48.0573 124.654 48.379 124.654H50.5476C50.8693 124.654 51.1778 124.771 51.4053 124.979C51.6327 125.187 51.7606 125.47 51.7606 125.764C51.7606 126.059 51.6327 126.341 51.4053 126.549C51.1778 126.757 50.8693 126.874 50.5476 126.874Z" fill="#426572"/>
<path d="M217.102 126.874H182.887V124.654H217.102C217.423 124.654 217.733 124.771 217.96 124.979C218.188 125.187 218.315 125.47 218.315 125.764C218.315 126.059 218.188 126.341 217.96 126.549C217.733 126.757 217.423 126.874 217.102 126.874Z" fill="#426572"/>
<path d="M42.1759 126.874H7.95923V124.654H42.1759C42.4976 124.654 42.8061 124.771 43.0336 124.979C43.2611 125.187 43.3889 125.47 43.3889 125.764C43.3889 126.059 43.2611 126.341 43.0336 126.549C42.8061 126.757 42.4976 126.874 42.1759 126.874Z" fill="#426572"/>
<path d="M53.0184 40.2277H177.647C179.896 40.2277 182.053 41.045 183.644 42.5002C185.235 43.9555 186.129 45.9292 186.13 47.9877V121.807H44.5347V47.9877C44.5356 45.9292 45.4299 43.9555 47.0208 42.5002C48.6117 41.045 50.7691 40.2277 53.0184 40.2277Z" fill="#EBF0F9"/>
<path d="M181.209 45.8885H50.0176V114.472H181.209V45.8885Z" fill="#637F91"/>
<path d="M49.0341 114.344H181.767C181.767 114.889 181.532 115.411 181.112 115.797C180.692 116.183 180.123 116.401 179.528 116.404H51.2829C50.6859 116.404 50.1135 116.187 49.6914 115.8C49.2694 115.414 49.0322 114.89 49.0322 114.344H49.0341Z" fill="white"/>
<g opacity="0.5">
<path opacity="0.5" d="M89.2209 45.6324L69.6053 114.858H59.7275L79.3431 45.6324H89.2209Z" fill="#A7BCD5"/>
<path opacity="0.5" d="M114.398 45.6324L94.7841 114.858H74.0693L93.6849 45.6324H114.398Z" fill="#A7BCD5"/>
</g>
<path d="M187.25 122.832H43.415V44.6781C43.4171 43.2265 44.0481 41.835 45.1696 40.8085C46.2912 39.7821 47.812 39.2047 49.3981 39.203H181.267C182.853 39.2047 184.374 39.7821 185.495 40.8085C186.617 41.835 187.248 43.2265 187.25 44.6781V122.832ZM45.6545 120.782H185.011V44.6781C185.01 43.7697 184.615 42.8989 183.913 42.2566C183.211 41.6144 182.26 41.2532 181.267 41.2523H49.3981C48.4056 41.2532 47.4539 41.6144 46.752 42.2566C46.0503 42.8989 45.6554 43.7697 45.6545 44.6781V120.782Z" fill="#426572"/>
<path d="M26.6772 119.363H207.786V119.908C207.786 121.675 207.019 123.368 205.655 124.618C204.289 125.867 202.437 126.568 200.508 126.568H33.9554C32.0252 126.568 30.1739 125.867 28.809 124.618C27.4441 123.368 26.6772 121.675 26.6772 119.908V119.363Z" fill="#EBF0F9"/>
<path opacity="0.5" d="M206.858 122.837C206.461 123.784 205.757 124.599 204.843 125.173C203.928 125.748 202.844 126.055 201.736 126.054H31.5985C30.4899 126.054 29.4074 125.747 28.4935 125.172C27.5796 124.598 26.8776 123.784 26.4795 122.837H206.858Z" fill="#A7BCD5"/>
<path d="M199.662 127.335H33.1117C30.8852 127.333 28.7506 126.522 27.1763 125.082C25.6018 123.641 24.7163 121.687 24.7139 119.65V118.081H208.062V119.65C208.06 121.688 207.173 123.641 205.598 125.082C204.023 126.523 201.888 127.333 199.662 127.335ZM26.9738 120.13C27.1052 121.536 27.8086 122.846 28.9447 123.801C30.081 124.756 31.5673 125.285 33.1099 125.286H199.662C201.205 125.285 202.691 124.756 203.827 123.801C204.964 122.846 205.667 121.536 205.798 120.13H26.9738Z" fill="#426572"/>
<path d="M182.047 115.111H48.6143V44.8639H182.047V115.111ZM50.8537 113.061H179.808V46.9132H50.8537V113.061Z" fill="#426572"/>
<path d="M161.155 23.8725V114.086H71.7251V23.8725C71.7285 23.4659 71.9065 23.0767 72.2208 22.7891C72.535 22.5015 72.9603 22.3386 73.4047 22.3355H159.468C159.569 22.3355 159.671 22.3442 159.77 22.3611C160.157 22.4265 160.507 22.6132 160.76 22.889C161.012 23.1648 161.152 23.5127 161.155 23.8725Z" fill="white"/>
<path d="M73.1324 29.7917H161.437V24.3645L159.748 22.3289H82.413H74.8194L72.0071 24.3645V29.7917H73.1324Z" fill="#E2F2FF"/>
<path d="M162.557 115.111H70.8872V23.8725C70.8902 23.194 71.186 22.5441 71.7104 22.0642C72.2348 21.5843 72.9451 21.3136 73.6865 21.3109H159.746C160.487 21.3136 161.198 21.5843 161.722 22.0642C162.247 22.5441 162.542 23.194 162.545 23.8725L162.557 115.111ZM73.1266 113.062H160.317V23.8725C160.313 23.7378 160.253 23.6094 160.149 23.5141C160.045 23.4188 159.904 23.3636 159.757 23.3602H73.694C73.5467 23.3636 73.4064 23.4188 73.3022 23.5141C73.1981 23.6094 73.1378 23.7378 73.1341 23.8725L73.1266 113.062Z" fill="#426572"/>
<path d="M155.935 25.4916H77.2676C76.6462 25.4916 76.1423 25.9526 76.1423 26.5214C76.1423 27.0901 76.6462 27.5512 77.2676 27.5512H155.935C156.557 27.5512 157.061 27.0901 157.061 26.5214C157.061 25.9526 156.557 25.4916 155.935 25.4916Z" fill="#CADCE8"/>
<path d="M101.168 39.4558H82.7805V58.6287H101.168V39.4558Z" fill="#E8837E"/>
<path d="M146.503 39.4558H102.904V58.6287H146.503V39.4558Z" fill="#E8837E"/>
<path d="M146.504 60.7513H125.918V79.9243H146.504V60.7513Z" fill="#FFA1AD"/>
<path d="M124.182 60.7513H83.012V79.9243H124.182V60.7513Z" fill="#FFA1AD"/>
<path d="M146.619 82.047H83.012V101.22H146.619V82.047Z" fill="#FFA1AD"/>
<path d="M147.181 103.797H130.87V105.846H147.181V103.797Z" fill="#FFA1AD"/>
<path d="M58.0797 109.2H31.3819C30.9423 109.203 30.5091 109.105 30.1223 108.914C29.5624 108.633 29.2041 108.174 29.2041 107.657L29.219 74.0719C29.2194 73.8522 29.2838 73.6365 29.4057 73.4469C29.7453 72.9073 30.5123 72.5281 31.3969 72.5281H58.0946C59.0277 72.5281 59.8134 72.9414 60.1269 73.5186C60.2219 73.6896 60.2717 73.8785 60.2725 74.0702L60.2594 107.657C60.2594 108.432 59.4402 109.079 58.382 109.185C58.2816 109.195 58.1807 109.201 58.0797 109.2Z" fill="white"/>
<path d="M58.8056 108.943L32.0985 108.938C31.659 108.941 31.2257 108.842 30.8388 108.651C30.279 108.371 29.9207 107.911 29.9207 107.394L29.9356 73.8091C29.936 73.5893 30.0003 73.3736 30.1222 73.1841C30.4619 72.6444 31.2289 72.2653 32.1134 72.2653H32.4773L32.4717 105.334C32.4717 105.847 32.8338 106.311 33.3899 106.591C33.7768 106.782 34.2101 106.881 34.6496 106.878H60.9853V107.39C60.9853 108.166 60.1661 108.813 59.1079 108.919C59.0077 108.932 58.9067 108.94 58.8056 108.943Z" fill="#D6DEE9"/>
<path d="M58.4416 109.967H31.742C31.1125 109.97 30.4922 109.828 29.9392 109.552C29.0061 109.079 28.4463 108.273 28.4463 107.399L28.4612 73.8141C28.4635 73.4136 28.5812 73.0206 28.8027 72.675C29.3626 71.7955 30.4823 71.2473 31.7607 71.2473H58.4584C59.7648 71.2473 60.9311 71.8365 61.4611 72.7518L61.6104 72.9619V73.0575C61.7071 73.3012 61.7564 73.5584 61.756 73.8175L61.7411 107.402C61.7411 108.69 60.5038 109.793 58.8652 109.948C58.7245 109.962 58.5831 109.968 58.4416 109.967ZM31.7551 73.2881C31.253 73.2881 30.8611 73.4913 30.7361 73.6928C30.7117 73.727 30.698 73.7666 30.6969 73.8072L30.682 107.392C30.682 107.505 30.8182 107.648 31.0216 107.752C31.2435 107.86 31.491 107.915 31.742 107.913H58.4398C58.4984 107.913 58.557 107.91 58.6152 107.904C59.175 107.85 59.4998 107.563 59.4998 107.392L59.5147 73.8072C59.5147 73.7869 59.511 73.7668 59.5035 73.7475L59.399 73.6006C59.1409 73.3876 58.802 73.2754 58.4547 73.2881H31.7569H31.7551Z" fill="#426572"/>
<path d="M55.3624 87.0608H37.2566V89.1101H55.3624V87.0608Z" fill="#426572"/>
<path d="M55.3624 82.7848H37.2566V84.8341H55.3624V82.7848Z" fill="#426572"/>
<path d="M55.3624 91.9059H37.2566V93.9552H55.3624V91.9059Z" fill="#426572"/>
<path opacity="0.2" d="M200.056 48.5002C201.36 46.2598 202.161 43.803 202.411 41.2749C202.661 38.7465 202.355 36.1982 201.512 33.7799C200.668 31.3617 199.302 29.1227 197.497 27.1948C195.693 25.2671 193.485 23.6896 191.003 22.5555C188.521 21.4214 185.816 20.7536 183.048 20.5918C180.28 20.4299 177.504 20.777 174.884 21.6126C172.265 22.4484 169.855 23.7559 167.797 25.4577C165.738 27.1596 164.073 29.2214 162.9 31.5217C161.28 34.3062 160.442 37.4159 160.462 40.5704C160.483 43.7252 161.36 46.8256 163.017 49.5923C164.673 52.3591 167.056 54.7052 169.95 56.4192C172.844 58.1333 176.158 59.1616 179.595 59.4111C178.995 59.5408 178.386 59.646 177.768 59.727C181.021 60.1561 184.339 59.8728 187.45 58.9003C190.559 57.9277 193.373 56.2937 195.659 54.1324C197.488 52.5163 198.979 50.6074 200.056 48.5002Z" fill="#606060"/>
<path d="M178.923 54.9721C190.395 54.9721 199.694 46.4622 199.694 35.9648C199.694 25.4674 190.395 16.9575 178.923 16.9575C167.452 16.9575 158.152 25.4674 158.152 35.9648C158.152 46.4622 167.452 54.9721 178.923 54.9721Z" fill="#FFA1AD"/>
<path d="M198.703 37.323C198.703 40.0482 198.061 42.7413 196.824 45.22C195.586 47.6986 193.78 49.9047 191.529 51.6888C189.279 53.4729 186.634 54.7931 183.776 55.5601C180.919 56.327 177.914 56.5227 174.967 56.1339C179.909 55.4802 184.429 53.2186 187.698 49.7638C190.968 46.309 192.767 41.8921 192.767 37.3221C192.767 32.7522 190.968 28.3352 187.698 24.8804C184.429 21.4257 179.909 19.1642 174.967 18.5103C177.915 18.1213 180.919 18.3169 183.777 19.0838C186.636 19.8508 189.28 21.171 191.531 22.9553C193.782 24.7396 195.588 26.946 196.826 29.4249C198.065 31.9039 198.705 34.5976 198.705 37.323H198.703Z" fill="#FF637E"/>
<path d="M178.429 56.9006C174.099 56.9006 169.867 55.7257 166.267 53.5246C162.667 51.3235 159.861 48.1949 158.204 44.5346C156.548 40.8742 156.114 36.8465 156.959 32.9607C157.803 29.0748 159.888 25.5055 162.95 22.7039C166.011 19.9025 169.912 17.9946 174.158 17.2217C178.404 16.4487 182.806 16.8454 186.806 18.3616C190.805 19.8777 194.224 22.4453 196.63 25.7396C199.035 29.0337 200.319 32.9067 200.319 36.8687C200.313 42.1796 198.005 47.2715 193.901 51.027C189.797 54.7823 184.232 56.8947 178.429 56.9006ZM178.429 18.8877C174.542 18.8877 170.743 19.9425 167.511 21.9183C164.279 23.8944 161.761 26.7028 160.273 29.9887C158.786 33.2745 158.397 36.8904 159.155 40.3786C159.913 43.8669 161.785 47.0712 164.533 49.586C167.281 52.101 170.783 53.8137 174.595 54.5076C178.407 55.2014 182.358 54.8452 185.949 53.4841C189.54 52.123 192.608 49.8182 194.767 46.8609C196.926 43.9038 198.08 40.427 198.08 36.8704C198.074 32.1027 196.002 27.5315 192.319 24.1603C188.633 20.7888 183.639 18.8927 178.429 18.8877Z" fill="#426572"/>
<path d="M188.92 29.0967C188.472 28.8675 187.944 28.8061 187.448 28.9251C186.951 29.0441 186.525 29.3346 186.257 29.7352L182.661 35.1147L176.915 43.7013L176.754 43.9421L170.12 39.0852L168.911 38.2008C168.118 37.6201 166.921 37.4374 166.158 38.2008C165.509 38.848 165.309 40.0979 166.158 40.7195L174.689 46.9631L175.898 47.8477C176.4 48.2166 176.878 48.4181 177.533 48.3378C177.825 48.305 178.106 48.2108 178.352 48.0627C178.599 47.9146 178.805 47.7167 178.955 47.4839L182.551 42.1045L188.299 33.5196L189.626 31.5354C190.15 30.7396 189.836 29.5441 188.92 29.0967Z" fill="white"/>
</g>
<defs>
<linearGradient id="paint0_linear_3_2356" x1="0.246415" y1="63.3897" x2="234.133" y2="63.3897" gradientUnits="userSpaceOnUse">
<stop stop-color="#FFA1AD" stop-opacity="0.38"/>
<stop offset="1" stop-color="#FFA1AD"/>
</linearGradient>
</defs>
</svg>
