<svg width="225" height="169" viewBox="0 0 225 169" fill="none" xmlns="http://www.w3.org/2000/svg">
<path d="M31.4606 126.587C31.4606 126.587 25.245 123.311 23.0906 118.542C20.9362 113.774 23.04 107.092 22.3931 104.85C26.37 109.061 28.814 110.284 30.5521 115.143C32.2903 119.998 31.7868 125.221 31.4606 126.587Z" fill="#FF637E"/>
<path d="M38.0109 134.535C38.0109 134.535 31.6125 139.614 24.8793 134.71C20.1712 130.738 17.0381 125.319 17.0381 125.319C17.0381 125.319 24.6065 126.342 28.3921 127.234C32.1778 128.13 36.6525 132.516 38.0109 134.535Z" fill="#FF637E"/>
<path d="M198.02 126.587C198.02 126.587 204.235 123.311 206.39 118.542C208.544 113.774 206.44 107.092 207.087 104.85C203.11 109.061 200.666 110.284 198.928 115.143C197.19 119.998 197.696 125.221 198.02 126.587Z" fill="#FF637E"/>
<path d="M191.469 134.535C191.469 134.535 197.868 139.614 204.601 134.71C209.309 130.738 212.442 125.319 212.442 125.319C212.442 125.319 204.874 126.342 201.088 127.234C197.302 128.13 192.828 132.516 191.469 134.535Z" fill="#FF637E"/>
<path d="M61.8947 153.356C61.8947 153.356 55.575 158.821 39.2625 154.697C27.3741 151.692 17.5781 139.935 17.5781 139.935C17.5781 139.935 40.9163 131.085 61.8947 153.356Z" fill="#FF637E"/>
<path d="M61.3659 154.091C61.3659 154.091 48.7997 152.627 36.6778 130.169C27.8409 113.802 30.9037 90.8037 30.9037 90.8037C30.9037 90.8037 64.6847 107.819 61.3659 154.091Z" fill="#AC1A34"/>
<path d="M60.885 153.629C60.885 153.629 50.8894 145.861 52.1213 120.365C53.0185 101.78 67.5254 83.6888 67.5254 83.6888C67.5254 83.6888 87.6375 115.757 60.885 153.629Z" fill="#AC1A34"/>
<path d="M166.672 152.407C166.672 152.407 172.912 157.804 189.022 153.731C200.765 150.762 210.437 139.155 210.437 139.155C210.437 139.155 187.391 130.412 166.672 152.407Z" fill="#FF637E"/>
<path d="M167.588 154.091C167.588 154.091 180.155 152.627 192.277 130.169C201.113 113.802 198.051 90.8037 198.051 90.8037C198.051 90.8037 164.27 107.819 167.588 154.091Z" fill="#AC1A34"/>
<path d="M168.069 153.629C168.069 153.629 178.065 145.861 176.833 120.365C175.933 101.78 161.429 83.6888 161.429 83.6888C161.429 83.6888 141.317 115.757 168.069 153.629Z" fill="#AC1A34"/>
<path d="M200.062 87.818C200.062 40.9346 162.112 2.92934 115.298 2.92934C68.4843 2.92934 30.5353 40.9346 30.5353 87.818C30.5353 114.562 42.8878 138.411 62.1872 153.97H168.412C187.706 138.411 200.062 114.562 200.062 87.818Z" fill="url(#paint0_linear_122_323)"/>
<path d="M105.59 29.0539C105.59 29.2398 105.441 29.3891 105.255 29.3891C105.069 29.3891 104.92 29.2398 104.92 29.0539C104.92 28.868 105.069 28.7187 105.255 28.7187C105.441 28.7187 105.59 28.8708 105.59 29.0539ZM129.496 49.7452C129.496 49.9311 129.347 50.0803 129.161 50.0803C128.976 50.0803 128.827 49.9311 128.827 49.7452C128.827 49.5593 128.976 49.41 129.161 49.41C129.347 49.41 129.496 49.5593 129.496 49.7452ZM89.6794 54.894C89.6794 55.0799 89.5303 55.2292 89.3447 55.2292C89.1591 55.2292 89.01 55.0799 89.01 54.894C89.01 54.7081 89.1591 54.5588 89.3447 54.5588C89.5303 54.5588 89.6794 54.7081 89.6794 54.894ZM64.3753 50.8465C64.3753 51.0324 64.2262 51.1817 64.0406 51.1817C63.855 51.1817 63.7059 51.0324 63.7059 50.8465C63.7059 50.6606 63.855 50.5113 64.0406 50.5113C64.2234 50.5113 64.3753 50.6606 64.3753 50.8465ZM162.416 71.2307C162.416 71.4166 162.267 71.5659 162.082 71.5659C161.896 71.5659 161.747 71.4166 161.747 71.2307C161.747 71.0448 161.896 70.8955 162.082 70.8955C162.267 70.8955 162.416 71.0448 162.416 71.2307Z" fill="white"/>
<path d="M163.513 48.9199L163.867 49.6409L164.663 49.7564L164.087 50.3197L164.225 51.114L163.513 50.7394L162.799 51.114L162.937 50.3197L162.36 49.7564L163.156 49.6409L163.513 48.9199Z" fill="#FF6161"/>
<path d="M81.0422 19.5843L81.4866 20.4884L82.4822 20.6321L81.7622 21.3363L81.9309 22.3277L81.0422 21.8602L80.1506 22.3277L80.3222 21.3363L79.6022 20.6321L80.5978 20.4884L81.0422 19.5843ZM180.745 63.7834L181.19 64.6848L182.185 64.8312L181.465 65.5326L181.637 66.5269L180.745 66.0565L179.857 66.5269L180.025 65.5326L179.305 64.8312L180.301 64.6848L180.745 63.7834Z" fill="#FF9090"/>
<path d="M49.4579 62.2793C50.1087 62.2793 50.6363 61.7509 50.6363 61.0991C50.6363 60.4473 50.1087 59.9189 49.4579 59.9189C48.807 59.9189 48.2794 60.4473 48.2794 61.0991C48.2794 61.7509 48.807 62.2793 49.4579 62.2793Z" fill="#FF9090"/>
<path d="M161.201 116.942C161.12 116.247 165.102 102.375 169.532 96.2033C173.962 90.0319 178.942 78.6273 178.942 78.6273C178.942 78.6273 180.619 88.7701 176.012 95.4315C171.405 102.093 169.45 105.383 169.45 105.383C169.45 105.383 172.668 98.8875 180.36 98.4397C188.052 97.9918 186.075 105.045 186.075 105.045C186.075 105.045 177.587 92.8937 159.969 120.382" fill="url(#paint1_linear_122_323)"/>
<path d="M150.674 130.398C150.674 130.398 138.58 133.217 130.39 128.195C122.203 123.176 116.834 116.052 116.834 116.052C116.834 116.052 125.983 112.968 131.881 114.19C137.779 115.41 142.94 122.094 142.954 121.556C142.968 121.015 136.662 112.47 136.15 106.847C135.638 101.223 138.305 90.691 138.305 90.691C138.305 90.691 146.07 96.6821 148.005 101.369C149.94 106.056 151.445 116.171 151.445 116.171C151.445 116.171 150.415 107.323 153.996 99.9832C157.576 92.643 166.674 86.7083 166.674 86.7083C166.674 86.7083 170.058 95.8681 167.279 104.803C164.5 113.737 158.065 119.613 158.065 119.613C158.065 119.613 166.97 113.176 172.465 112.295C177.961 111.413 185.583 116.193 185.583 116.193C185.583 116.193 177.789 124.877 171.759 126.437C165.732 127.998 159.671 127.198 159.671 127.198C159.671 127.198 168.033 127.342 172.952 130.676C177.871 134.009 182.062 140.887 182.062 140.887C182.062 140.887 170.412 142.27 163.066 138.532C155.72 134.792 150.674 130.398 150.674 130.398Z" fill="url(#paint2_linear_122_323)"/>
<path d="M162.188 127.378C160.681 127.218 159.671 127.198 159.671 127.198C159.671 127.198 160.644 127.322 162.188 127.378Z" fill="url(#paint3_linear_122_323)"/>
<path d="M140.068 97.1637C140.068 97.1637 141.55 116.782 150.77 127.288C149.482 124.35 146.025 119.311 144.107 112.337C142.189 105.363 140.068 97.1637 140.068 97.1637Z" fill="url(#paint4_linear_122_323)"/>
<path d="M150.519 128.11C150.519 128.11 133.183 123.08 126.484 119.956C121.508 117.782 119.191 116.675 119.191 116.675C119.191 116.675 122.948 119.742 133.678 123.885C144.411 128.032 150.519 128.11 150.519 128.11Z" fill="url(#paint5_linear_122_323)"/>
<path d="M152.691 128.488C152.691 128.488 163.322 131.316 172.266 135.904C176.496 138.11 179.156 139.695 179.156 139.695C179.156 139.695 171.9 136.439 166.902 134.454C161.907 132.465 152.691 128.488 152.691 128.488Z" fill="url(#paint6_linear_122_323)"/>
<path d="M70.3519 111.275C70.4335 110.58 66.451 96.7074 62.0213 90.5361C57.5916 84.3648 52.6107 72.9601 52.6107 72.9601C52.6107 72.9601 50.9344 83.1029 55.5413 89.7643C60.1482 96.4258 62.1029 99.7156 62.1029 99.7156C62.1029 99.7156 58.8854 93.2204 51.1932 92.7725C43.501 92.3247 45.4782 99.3776 45.4782 99.3776C45.4782 99.3776 53.9663 87.2265 71.5838 114.714" fill="url(#paint7_linear_122_323)"/>
<path d="M154.876 81.2524C154.876 81.2524 149.898 88.7194 146.782 99.572C143.665 110.425 144.903 122.604 144.903 122.604" stroke="black" stroke-width="2.3099" stroke-miterlimit="10"/>
<path d="M153.082 93.6992C153.082 93.6992 149.082 94.9752 147.642 96.7919C147.687 94.7949 148.295 87.5617 148.295 87.5617" stroke="black" stroke-width="2.3099" stroke-miterlimit="10"/>
<path d="M150.548 105.284C150.548 105.284 146.7 105.935 145.218 107.374C144.293 105.214 143.432 99.5833 143.432 99.5833" stroke="black" stroke-width="2.3099" stroke-miterlimit="10"/>
<path d="M147.037 115.168C147.037 115.168 145.367 116.159 144.658 117.092C143.407 115.207 140.088 111.689 140.088 111.689" stroke="black" stroke-width="2.3099" stroke-miterlimit="10"/>
<path d="M154.268 81.9481C154.268 81.9481 159.165 81.8016 161.3 78.416C163.434 75.0304 163.862 72.0813 163.862 72.0813C163.862 72.0813 159.334 72.7686 156.667 75.1487C154.001 77.5288 154.268 81.9481 154.268 81.9481Z" fill="#FF637E"/>
<path d="M153.082 93.6992C153.082 93.6992 155.756 89.5418 159.384 87.8265C162.593 86.5308 166.992 88.9363 166.992 88.9363C166.992 88.9363 166.461 92.2149 161.55 94.0682C158.279 95.3019 154.955 94.4823 153.082 93.6992Z" fill="#FF637E"/>
<path d="M143.682 100.569C143.682 100.569 145.395 93.595 142.186 90.846C138.98 88.0969 137.728 87.4491 137.728 87.4491C137.728 87.4491 136.454 92.843 137.86 95.7582C139.267 98.6678 143.682 100.569 143.682 100.569Z" fill="#FF637E"/>
<path d="M149.583 105.448C149.583 105.448 153.821 101.375 156.991 101.372C160.163 101.366 163.448 102.789 163.448 102.789C163.448 102.789 161.46 106.853 156.541 106.974C151.619 107.092 149.583 105.448 149.583 105.448Z" fill="#FF637E"/>
<path d="M140.659 112.278C140.659 112.278 139.795 106.878 135.757 105.808C132.32 104.96 130.846 105.755 130.846 105.755C130.846 105.755 131.012 108.397 133.034 110.608C135.059 112.816 140.659 112.278 140.659 112.278Z" fill="#FF637E"/>
<path d="M146.542 115.461C146.542 115.461 147.383 112.326 150.038 111.515C152.783 110.72 155.137 112.137 155.137 112.137C155.137 112.137 154.794 115.41 151.717 116.162C148.641 116.914 146.542 115.461 146.542 115.461Z" fill="#FF637E"/>
<path d="M148.452 88.1081C148.452 88.1081 150.255 82.9818 149.124 80.5031C147.994 78.0217 145.513 76.9203 145.513 76.9203C145.513 76.9203 143.587 79.7849 144.284 82.5424C144.979 85.2999 148.452 88.1081 148.452 88.1081Z" fill="#FF637E"/>
<path d="M69.736 82.3762C69.736 82.3762 76.725 87.9983 82.9547 97.4116C89.1844 106.825 91.6622 118.813 91.6622 118.813" stroke="black" stroke-width="2.3099" stroke-miterlimit="10"/>
<path d="M75.1809 93.7049C75.1809 93.7049 79.38 93.7161 81.2981 95.0174C80.6568 93.1246 77.9062 86.4097 77.9062 86.4097" stroke="black" stroke-width="2.3099" stroke-miterlimit="10"/>
<path d="M81.0759 103.991C81.0759 103.991 84.9431 103.453 86.7853 104.38C87.0187 102.042 86.1497 96.4117 86.1497 96.4117" stroke="black" stroke-width="2.3099" stroke-miterlimit="10"/>
<path d="M87.39 112.36C87.39 112.36 89.28 112.802 90.2363 113.478C90.8663 111.303 92.9728 106.949 92.9728 106.949" stroke="black" stroke-width="2.3099" stroke-miterlimit="10"/>
<path d="M70.5235 82.8551C70.5235 82.8551 65.8069 84.1902 62.7582 81.6016C59.7066 79.0131 58.4128 76.3317 58.4128 76.3317C58.4128 76.3317 62.9382 75.6219 66.195 77.0922C69.4519 78.5596 70.5235 82.8551 70.5235 82.8551Z" fill="#FF637E"/>
<path d="M75.1809 93.7049C75.1809 93.7049 71.3812 90.5446 67.4072 90.0009C63.9562 89.7305 60.4856 93.35 60.4856 93.35C60.4856 93.35 61.9762 96.3159 67.2159 96.606C70.7062 96.7976 73.6312 95.0146 75.1809 93.7049Z" fill="#FF637E"/>
<path d="M86.2088 97.4257C86.2088 97.4257 82.4822 91.291 84.7154 87.6997C86.9485 84.1113 87.9497 83.117 87.9497 83.117C87.9497 83.117 90.7847 87.88 90.3179 91.0826C89.8482 94.2851 86.2088 97.4257 86.2088 97.4257Z" fill="#FF637E"/>
<path d="M82.0463 103.856C82.0463 103.856 76.7813 101.248 73.7551 102.2C70.7288 103.152 68.0204 105.495 68.0204 105.495C68.0204 105.495 71.1366 108.774 75.8673 107.408C80.5979 106.042 82.0463 103.856 82.0463 103.856Z" fill="#FF637E"/>
<path d="M92.61 107.684C92.61 107.684 91.8113 102.273 95.3409 100.037C98.3644 98.1918 100.01 98.5073 100.01 98.5073C100.01 98.5073 100.645 101.076 99.3797 103.794C98.1113 106.512 92.61 107.684 92.61 107.684Z" fill="#FF637E"/>
<path d="M87.9497 112.492C87.9497 112.492 86.2059 109.754 83.4328 109.78C80.5781 109.85 78.7584 111.906 78.7584 111.906C78.7584 111.906 80.0691 114.926 83.2275 114.717C86.3859 114.509 87.9497 112.492 87.9497 112.492Z" fill="#FF637E"/>
<path d="M77.9203 86.9815C77.9203 86.9815 74.6634 82.6354 74.9953 79.9285C75.3272 77.2217 77.3662 75.4247 77.3662 75.4247C77.3662 75.4247 80.0634 77.5766 80.2266 80.4158C80.3897 83.255 77.9203 86.9815 77.9203 86.9815Z" fill="#FF637E"/>
<path d="M144.827 154.914C144.827 154.914 134.376 161.629 124.979 159.649C115.585 157.669 108.143 152.759 108.143 152.759C108.143 152.759 115.732 146.785 121.697 145.954C127.662 145.123 134.764 149.689 134.595 149.176C134.426 148.664 125.626 142.729 123.261 137.603C120.895 132.476 119.883 121.657 119.883 121.657C119.883 121.657 129.203 124.697 132.595 128.463C135.987 132.228 140.791 141.253 140.791 141.253C140.791 141.253 136.859 133.262 137.776 125.144C138.693 117.027 145.28 108.38 145.28 108.38C145.28 108.38 151.535 115.875 151.906 125.223C152.28 134.575 148.182 142.27 148.182 142.27C148.182 142.27 154.417 133.217 159.3 130.541C164.182 127.865 172.963 129.809 172.963 129.809C172.963 129.809 168.525 140.608 163.367 144.101C158.209 147.596 152.232 148.875 152.232 148.875C152.232 148.875 160.158 146.205 165.909 147.692C171.661 149.182 177.91 154.255 177.91 154.255C177.91 154.255 167.397 159.468 159.227 158.412C151.051 157.359 144.827 154.914 144.827 154.914Z" fill="url(#paint8_linear_122_323)"/>
<path d="M154.662 148.202C153.188 148.557 152.229 148.875 152.229 148.875C152.229 148.875 153.191 148.669 154.662 148.202Z" fill="url(#paint9_linear_122_323)"/>
<path d="M123.711 127.161C123.711 127.161 131.673 145.148 143.876 151.951C141.68 149.613 136.735 146.027 132.595 140.101C128.452 134.175 123.711 127.161 123.711 127.161Z" fill="url(#paint10_linear_122_323)"/>
<path d="M143.916 152.813C143.916 152.813 125.899 153.894 118.541 153.198C113.127 152.818 110.573 152.553 110.573 152.553C110.573 152.553 115.141 154.184 126.638 154.483C138.133 154.784 143.916 152.813 143.916 152.813Z" fill="url(#paint11_linear_122_323)"/>
<path d="M83.4469 129.606C83.4469 129.606 94.95 124.925 98.7497 116.095C102.549 107.264 102.836 98.3467 102.836 98.3467C102.836 98.3467 93.5859 101.11 89.4712 105.515C85.3565 109.918 84.9853 118.359 84.6647 117.925C84.344 117.492 84.5747 106.87 81.7537 101.977C78.9328 97.0877 70.6922 90.0207 70.6922 90.0207C70.6922 90.0207 67.7981 99.4002 68.9147 104.346C70.0312 109.292 74.6269 118.427 74.6269 118.427C74.6269 118.427 70.3744 110.602 63.2222 106.673C56.07 102.744 45.2194 103.146 45.2194 103.146C45.2194 103.146 47.7281 112.585 55.1419 118.28C62.5556 123.976 71.1956 125.06 71.1956 125.06C71.1956 125.06 60.2156 124.945 55.2178 127.395C50.22 129.848 46.7437 138.155 46.7437 138.155C46.7437 138.155 58.1119 140.749 63.9365 138.543C69.7612 136.338 74.25 132.186 74.25 132.186C74.25 132.186 67.5028 137.129 65.4019 142.695C63.3009 148.261 63.8381 156.297 63.8381 156.297C63.8381 156.297 74.1515 150.7 78.0019 143.405C81.855 136.11 83.4469 129.606 83.4469 129.606Z" fill="url(#paint12_linear_122_323)"/>
<path d="M72.3009 133.786C73.4428 132.786 74.2528 132.186 74.2528 132.186C74.2528 132.186 73.53 132.851 72.3009 133.786Z" fill="url(#paint13_linear_122_323)"/>
<path d="M93.3132 154.46C93.3132 154.46 104.324 160.209 113.504 157.393C122.684 154.576 129.656 149.019 129.656 149.019C129.656 149.019 121.565 143.749 115.549 143.458C109.533 143.168 102.87 148.351 102.991 147.824C103.112 147.298 111.347 140.597 113.243 135.279C115.138 129.961 115.18 119.094 115.18 119.094C115.18 119.094 106.169 122.959 103.126 127.015C100.086 131.071 96.1088 140.49 96.1088 140.49C96.1088 140.49 99.3094 132.178 97.6697 124.176C96.03 116.173 88.6978 108.152 88.6978 108.152C88.6978 108.152 83.1403 116.176 83.6072 125.522C84.0713 134.868 88.8441 142.166 88.8441 142.166C88.8441 142.166 81.8241 133.71 76.7222 131.482C71.6203 129.254 63.0478 131.981 63.0478 131.981C63.0478 131.981 68.4338 142.337 73.8844 145.354C79.3322 148.371 85.4016 149.109 85.4016 149.109C85.4016 149.109 77.2707 147.16 71.6738 149.159C66.0797 151.159 60.3113 156.773 60.3113 156.773C60.3113 156.773 71.2491 161.02 79.2928 159.237C87.3338 157.457 93.3132 154.46 93.3132 154.46Z" fill="url(#paint14_linear_122_323)"/>
<path opacity="0.3" d="M88.6979 108.154C88.6979 108.154 96.0301 116.176 97.6697 124.178C99.3094 132.181 96.1088 140.493 96.1088 140.493C96.1088 140.493 100.086 131.071 103.126 127.018C106.166 122.962 115.18 119.097 115.18 119.097C115.18 119.097 115.141 129.964 113.243 135.282C111.347 140.6 103.112 147.303 102.991 147.827C102.87 148.354 109.533 143.168 115.549 143.461C121.565 143.751 129.656 149.021 129.656 149.021C129.656 149.021 122.684 154.579 113.504 157.395C104.324 160.212 93.3132 154.463 93.3132 154.463L93.0179 154.607C93.9488 134.203 88.6979 108.154 88.6979 108.154Z" fill="#FF637E"/>
<path d="M82.9154 148.661C84.4145 148.883 85.396 149.114 85.396 149.114C85.396 149.114 84.4229 148.993 82.9154 148.661Z" fill="url(#paint15_linear_122_323)"/>
<path d="M111.859 124.925C111.859 124.925 105.539 143.554 93.9938 151.424C95.971 148.9 100.575 144.884 104.169 138.611C107.764 132.335 111.859 124.925 111.859 124.925Z" fill="url(#paint16_linear_122_323)"/>
<path d="M94.0332 152.286C94.0332 152.286 112.075 151.745 119.34 150.393C124.698 149.528 127.218 149.035 127.218 149.035C127.218 149.035 122.816 151.069 111.392 152.401C99.9676 153.734 94.0332 152.286 94.0332 152.286Z" fill="url(#paint17_linear_122_323)"/>
<path d="M92.3569 151.877C92.3569 151.877 85.5478 144.802 79.2141 140.171C72.8831 135.538 65.6635 132.98 65.6635 132.98C65.6635 132.98 75.1444 138.667 78.6994 141.225C82.2516 143.782 92.3569 151.877 92.3569 151.877Z" fill="url(#paint18_linear_122_323)"/>
<path d="M91.6116 66.8451C91.6116 66.8451 92.8378 72.9263 86.5688 76.25C84.4706 76.9767 80.5613 77.0471 78.3872 74.9684C81.5766 76.5204 84.4172 76.7795 86.5153 75.9599C87.7078 74.9656 91.1335 73.6643 91.6116 66.8451Z" fill="black"/>
<path d="M88.2534 67.4733C88.2534 67.4733 89.6231 72.6756 86.4871 76.1204C83.3737 75.4331 80.7946 73.0502 80.0409 71.3574C81.0506 72.5207 83.804 75.2641 86.3409 75.881C87.5306 73.8727 88.709 71.3462 88.2534 67.4733Z" fill="black"/>
<path d="M86.1272 70.3434C86.1272 70.3434 87.7134 73.9544 86.5969 75.9937C86.0034 75.6472 83.1431 73.0531 82.3331 69.0872C83.52 71.3011 83.9391 73.2756 86.4197 75.4191C86.7375 74.0614 86.2313 70.8842 86.1272 70.3434Z" fill="black"/>
<path d="M91.6875 68.1661C91.6875 68.1661 92.5988 67.631 92.6972 66.2621C92.7984 64.8932 91.9884 64.4031 91.5638 64.9889C91.3809 64.5749 91.1953 64.7805 91.1925 65.0481C90.9366 64.789 90.4331 64.7749 90.3684 65.372C90.3038 65.9691 90.8241 68.0422 91.6875 68.1661Z" fill="url(#paint19_linear_122_323)"/>
<path d="M88.3406 68.5379C88.3406 68.5379 89.3784 67.8845 88.9031 66.355C88.6078 65.5664 88.2028 65.5072 88.11 65.7156C87.9946 65.6227 87.5109 65.5495 87.4856 65.9663C87.2437 65.8368 86.8246 66.1832 86.94 66.6677C87.0496 67.1521 87.3168 68.3013 88.3406 68.5379Z" fill="url(#paint20_linear_122_323)"/>
<path d="M86.4197 71.5912C86.4197 71.5912 87.2437 71.042 86.7628 69.7294C86.4562 68.8393 86.0231 69.1379 86.0175 69.3266C85.8515 69.0759 85.5703 69.1238 85.5394 69.3463C85.2975 69.2308 84.9965 69.5773 85.109 70.0589C85.2215 70.5406 85.5815 71.5264 86.4197 71.5912Z" fill="url(#paint21_linear_122_323)"/>
<path d="M82.7999 70.3209C82.7999 70.3209 83.5931 69.9407 83.3765 68.7154C83.1599 67.4902 82.4849 66.7156 82.2374 67.2085C81.9928 67.0226 81.5793 66.6649 81.2053 67.3719C80.7581 67.4761 80.8312 68.1718 81.0281 68.6816C81.2221 69.1886 81.9478 70.3575 82.7999 70.3209Z" fill="url(#paint22_linear_122_323)"/>
<path d="M79.844 75.8331C79.844 75.8331 80.0803 74.9825 79.0172 74.3403C77.954 73.6981 76.9275 73.6953 77.1328 74.2079C76.8319 74.2699 76.2919 74.3459 76.5759 75.0951C76.3594 75.5007 76.9303 75.9035 77.445 76.0894C77.9569 76.2753 79.3125 76.4979 79.844 75.8331Z" fill="url(#paint23_linear_122_323)"/>
<path d="M80.7243 72.1799C80.7243 72.1799 81.1068 71.7912 80.6315 70.9518C80.3222 70.3237 79.3603 69.2646 79.2084 70.0787C78.7612 70.0871 78.2493 69.9688 78.4631 70.8786C78.0553 71.1152 78.4181 71.5461 78.8315 71.9658C79.2478 72.3827 80.3221 72.5263 80.7243 72.1799Z" fill="url(#paint24_linear_122_323)"/>
<path d="M86.7712 75.605C86.7712 75.605 86.7881 75.6359 86.8219 75.7007C87.3731 76.7626 92.2922 86.435 90.3178 89.432C90.5119 87.9053 90.2728 85.9956 88.9228 82.1453C87.5728 78.2949 86.3438 75.8782 86.3438 75.8782L86.7909 75.6388" fill="black"/>
<path d="M135.039 68.9436C135.039 68.9436 133.813 75.0247 140.082 78.3484C142.18 79.0751 146.09 79.1455 148.264 77.0668C145.074 78.6188 142.234 78.8779 140.136 78.0583C138.943 77.064 135.517 75.7627 135.039 68.9436Z" fill="black"/>
<path d="M138.397 69.5717C138.397 69.5717 137.028 74.7741 140.164 78.2188C143.277 77.5316 145.856 75.1487 146.61 73.4559C145.6 74.6191 142.847 77.3626 140.31 77.9794C139.12 75.974 137.945 73.4446 138.397 69.5717Z" fill="black"/>
<path d="M140.524 72.4418C140.524 72.4418 138.937 76.0528 140.054 78.0921C140.647 77.7456 143.508 75.1515 144.318 71.1856C143.131 73.3995 142.712 75.374 140.231 77.5175C139.913 76.1598 140.42 72.9826 140.524 72.4418Z" fill="black"/>
<path d="M134.963 70.2646C134.963 70.2646 134.052 69.7294 133.954 68.3605C133.852 66.9916 134.662 66.5015 135.087 67.0874C135.27 66.6733 135.456 66.8789 135.458 67.1465C135.714 66.8874 136.218 66.8733 136.282 67.4704C136.347 68.0676 135.827 70.1406 134.963 70.2646Z" fill="url(#paint25_linear_122_323)"/>
<path d="M138.31 70.6364C138.31 70.6364 137.272 69.9829 137.748 68.4534C138.043 67.6648 138.448 67.6056 138.541 67.8141C138.656 67.7211 139.14 67.6479 139.165 68.0647C139.407 67.9352 139.826 68.2816 139.711 68.7661C139.601 69.2534 139.334 70.4026 138.31 70.6364Z" fill="url(#paint26_linear_122_323)"/>
<path d="M140.231 73.6896C140.231 73.6896 139.407 73.1404 139.888 71.8306C140.195 70.9406 140.628 71.2391 140.633 71.4279C140.799 71.1772 141.081 71.2251 141.112 71.4476C141.353 71.3321 141.654 71.6785 141.542 72.1602C141.429 72.639 141.072 73.6249 140.231 73.6896Z" fill="url(#paint27_linear_122_323)"/>
<path d="M143.854 72.4193C143.854 72.4193 143.061 72.0391 143.277 70.8138C143.494 69.5886 144.166 68.814 144.416 69.3069C144.661 69.121 145.074 68.7633 145.448 69.4703C145.896 69.5745 145.823 70.2702 145.626 70.78C145.429 71.287 144.703 72.4559 143.854 72.4193Z" fill="url(#paint28_linear_122_323)"/>
<path d="M146.807 77.9315C146.807 77.9315 146.571 77.0809 147.634 76.4387C148.697 75.7965 149.723 75.7937 149.518 76.3063C149.819 76.3683 150.359 76.4443 150.075 77.1936C150.292 77.5992 149.721 78.0019 149.206 78.1878C148.694 78.3737 147.338 78.5963 146.807 77.9315Z" fill="url(#paint29_linear_122_323)"/>
<path d="M145.927 74.2783C145.927 74.2783 145.544 73.8896 146.019 73.0502C146.329 72.4221 147.291 71.3631 147.442 72.1771C147.89 72.1855 148.402 72.0672 148.188 72.977C148.596 73.2136 148.233 73.6446 147.819 74.0642C147.403 74.4839 146.332 74.6248 145.927 74.2783Z" fill="url(#paint30_linear_122_323)"/>
<path d="M139.88 77.7062C139.88 77.7062 139.863 77.7372 139.829 77.802C139.278 78.8639 134.359 88.5363 136.333 91.5332C136.139 90.0066 136.378 88.0969 137.728 84.2465C139.078 80.3961 140.307 77.9794 140.307 77.9794L139.86 77.74" fill="black"/>
<path d="M116.857 167.552C164.243 167.552 202.658 164.522 202.658 160.784C202.658 157.046 164.243 154.015 116.857 154.015C69.4701 154.015 31.0557 157.046 31.0557 160.784C31.0557 164.522 69.4701 167.552 116.857 167.552Z" fill="url(#paint31_linear_122_323)"/>
<path d="M112.39 67.2366L102.963 83.5254C102.963 83.5254 114.514 93.6767 116.634 92.7331C118.755 91.7895 129.127 87.7758 129.127 87.7758C129.127 87.7758 129.364 81.8749 128.655 79.9849C127.949 78.0977 119.227 64.4059 118.519 64.8763C117.81 65.3495 112.39 67.2366 112.39 67.2366Z" fill="url(#paint32_linear_122_323)"/>
<path d="M76.1625 140.56C76.635 140.876 80.3278 145.912 85.4353 149.452C90.5428 152.993 97.4559 156.455 97.4559 156.455L135.956 157.083C135.956 157.083 144.599 153.384 149.943 148.821C155.287 144.258 156.465 140.794 156.465 140.794L124.566 143.233L124.251 142.918L108.222 143.075" fill="black"/>
<path d="M76.1625 140.56C76.635 140.876 80.3278 145.912 85.4353 149.452C90.5428 152.993 97.4559 156.455 97.4559 156.455L135.956 157.083C135.956 157.083 144.599 153.384 149.943 148.821C155.287 144.258 156.465 140.794 156.465 140.794L124.566 143.233L124.251 142.918L108.222 143.075" stroke="#231F20" stroke-width="2" stroke-miterlimit="10"/>
<path d="M105.314 56.4939C105.314 56.4939 106.31 63.5243 108.875 66.6198C111.44 69.7153 114.061 71.6025 116.052 71.6025C118.043 71.6025 122.023 69.2421 123.803 65.7804C125.584 62.3187 126.371 56.6009 126.371 56.6009C126.371 56.6009 130.508 46.582 121.553 45.4807C112.596 44.3794 107.567 42.6471 106.886 44.6949C106.206 46.7369 105.314 56.4939 105.314 56.4939Z" fill="url(#paint33_linear_122_323)"/>
<path d="M122.077 48.0467C122.164 47.9059 126.321 54.6574 125.848 58.381C125.376 62.1047 124.068 65.7776 123.176 66.9324C122.285 68.0873 119.877 70.0787 119.877 70.0787C119.877 70.0787 119.666 75.3768 121.711 78.1062C123.756 80.8355 127.578 82.5649 129.307 82.7227C131.037 82.8804 132.607 83.0888 132.449 83.0888C132.292 83.0888 129.988 75.9542 130.877 70.918C131.768 65.8818 130.669 51.6661 128.728 46.368C126.79 41.0698 125.533 40.6501 125.533 40.6501C125.533 40.6501 120.243 35.6674 109.505 39.1826C103.306 41.2106 101.908 48.2044 101.962 55.8122C102.015 63.4201 102.8 69.5041 100.704 75.4331C98.609 81.3622 99.0281 83.1452 99.0281 83.1452C99.0281 83.1452 106.99 82.9874 109.347 80.5736C111.704 78.1597 112.281 76.4302 112.438 74.4896C112.596 72.5489 112.753 70.3462 112.753 70.3462C112.753 70.3462 108.771 68.0901 107.305 63.7355C105.84 59.381 105.733 59.0148 105.733 59.0148C105.733 59.0148 108.771 57.598 112.385 54.0828C115.999 50.5676 116.364 49.8325 116.364 49.8325L113.903 53.7138C113.903 53.7138 118.671 53.4519 122.077 48.0467Z" fill="#600011"/>
<path d="M103.115 82.8015C103.115 82.8015 97.1438 82.8015 95.6503 84.8464C94.1569 86.8913 85.4353 111.365 85.8291 112.937C86.2228 114.509 99.6581 132.138 99.6581 132.138C99.6581 132.138 100.052 122.618 99.9731 122.145C99.8944 121.672 92.745 111.05 92.745 110.813C92.745 110.577 99.5822 98.1439 99.5822 98.1439L103.115 82.8015Z" fill="url(#paint34_linear_122_323)"/>
<path d="M129.279 82.8015C129.279 82.8015 135.25 82.8015 136.744 84.8464C138.237 86.8913 146.959 111.365 146.565 112.937C146.171 114.509 132.736 132.138 132.736 132.138C132.736 132.138 132.342 122.618 132.421 122.145C132.5 121.672 139.649 111.05 139.649 110.813C139.649 110.577 132.812 98.1439 132.812 98.1439L129.279 82.8015Z" fill="url(#paint35_linear_122_323)"/>
<path d="M128.571 82.4861C128.571 82.4861 125.035 87.6011 116.862 87.9955C108.692 88.3898 104.448 82.6438 104.448 82.6438L103.112 82.8015C103.112 82.8015 99.8128 89.8826 99.4978 94.6822C99.1828 99.4818 100.049 101.684 101.228 103.969C102.406 106.253 103.427 106.487 103.427 106.487L103.899 138.749C103.899 138.749 125.741 141.109 125.665 140.873C125.587 140.636 130.064 106.721 130.064 106.408C130.064 106.093 132.657 100.82 132.815 96.9666C132.972 93.1134 130.3 82.9593 130.3 82.9593L128.571 82.4861Z" fill="url(#paint36_linear_122_323)"/>
<path d="M94.3932 143.706C94.3932 143.706 90.8578 111.365 90.9366 111.05C91.0153 110.734 90.6216 109.475 95.0232 109.554C99.4219 109.633 139.967 109.554 139.967 109.554C139.967 109.554 142.403 109.081 142.166 112.309C141.93 115.534 140.437 142.368 140.437 142.368L94.3932 143.706Z" fill="url(#paint37_linear_122_323)"/>
<path opacity="0.3" d="M115.999 128.127C117.864 128.127 119.377 126.613 119.377 124.745C119.377 122.876 117.864 121.362 115.999 121.362C114.133 121.362 112.621 122.876 112.621 124.745C112.621 126.613 114.133 128.127 115.999 128.127Z" fill="white"/>
<path d="M122.338 149.295C122.192 148.788 112.359 144.416 109.609 142.135C106.858 139.853 98.8453 135.287 92.3231 132.927C85.801 130.567 80.145 127.812 78.8091 127.418C77.4731 127.023 74.9588 126.711 72.5231 129.936C70.0875 133.161 70.3238 135.837 72.4444 137.963C74.565 140.087 82.8169 147.329 90.2813 149.452C97.7456 151.576 103.089 152.677 108.903 154.331C114.716 155.984 118.33 157.164 118.33 157.164C118.33 157.164 123.753 154.173 122.338 149.295Z" fill="url(#paint38_linear_122_323)"/>
<path d="M119.143 156.77C119.143 156.77 121.815 157.007 122.679 157.635C123.542 158.263 125.193 159.209 126.056 159.209C126.92 159.209 129.985 159.682 132.106 160.626C134.227 161.57 138.943 164.245 140.043 163.772L141.143 163.299C141.143 163.299 141.927 163.299 142.4 162.905C142.872 162.51 142.951 162.119 142.951 162.119C142.951 162.119 143.814 162.119 144.208 161.725C144.602 161.33 144.602 160.623 144.602 160.623C144.602 160.623 145.308 160.702 145.544 160.229L145.78 159.756C145.78 159.756 146.644 159.204 146.959 158.576C147.274 157.947 147.274 157.869 147.116 157.632C146.959 157.395 143.817 155.272 143.108 155.272C142.403 155.272 138.943 154.877 137.059 154.328C135.174 153.776 133.917 153.621 130.3 153.148C126.686 152.677 119.143 156.77 119.143 156.77Z" fill="url(#paint39_linear_122_323)"/>
<path d="M112.072 149.61C112.219 149.103 122.051 144.732 124.802 142.45C127.552 140.169 135.565 135.603 142.087 133.242C148.61 130.882 154.266 128.127 155.602 127.733C156.937 127.339 159.452 127.026 161.887 130.251C164.323 133.476 164.087 136.152 161.966 138.279C159.846 140.402 151.594 147.644 144.129 149.768C136.665 151.892 131.321 152.993 125.508 154.646C119.694 156.3 116.08 157.48 116.08 157.48C116.08 157.48 110.658 154.489 112.072 149.61Z" fill="url(#paint40_linear_122_323)"/>
<path d="M111.966 150.08C111.966 150.08 103.269 154.381 101.751 154.381C100.232 154.381 99.8635 153.858 99.1322 153.542C98.3982 153.227 96.9835 153.384 94.9416 154.328C92.8997 155.272 91.4316 156.111 90.0704 156.007C88.7091 155.902 85.9332 155.063 84.361 155.849C82.7888 156.635 79.8554 159.468 80.9044 160.57C81.9535 161.671 84.676 162.879 85.8291 162.248C86.9822 161.62 90.1772 161.463 92.7957 161.725C95.4141 161.986 98.3476 162.826 100.392 162.091C102.437 161.356 106.048 159.257 109.139 158.471C112.23 157.685 115.372 157.108 115.372 157.108C115.372 157.108 111.285 155.066 111.966 150.08Z" fill="url(#paint41_linear_122_323)"/>
<path d="M142.177 111.841C142.152 109.135 139.964 109.554 139.964 109.554C139.964 109.554 99.4218 109.633 95.0203 109.554C90.6215 109.475 91.0125 110.734 90.9337 111.05C90.9281 111.075 90.9421 111.292 90.9759 111.67C91.3415 111.146 91.7887 110.264 94.3284 110.264H139.691C139.691 110.264 141.292 110.185 142.177 111.841Z" fill="white"/>
<path d="M170.598 161.792L159.893 112.65L158.647 112.827L159.367 116.137C159.556 116.345 154.578 116.137 154.578 116.137L153.821 112.658L152.539 112.669L163.297 162.057C163.314 162.138 163.347 162.214 163.394 162.282C163.441 162.35 163.501 162.408 163.571 162.453C163.64 162.498 163.718 162.529 163.799 162.543C163.881 162.558 163.964 162.556 164.045 162.539C164.207 162.503 164.35 162.404 164.44 162.263C164.53 162.123 164.561 161.953 164.526 161.789L163.738 158.17H168.528L169.374 162.057C169.447 162.398 169.782 162.612 170.122 162.539C170.463 162.465 170.671 162.133 170.598 161.792ZM154.811 117.213H159.601L160.357 120.691H155.568L154.811 117.213ZM155.804 121.765H160.594L161.353 125.243H156.563L155.804 121.765ZM156.794 126.316H161.584L162.34 129.795H157.551L156.794 126.316ZM157.787 130.865H162.577L163.333 134.344H158.543L157.787 130.865ZM158.777 135.417H163.567L164.323 138.895H159.533L158.777 135.417ZM159.77 139.969H164.559L165.316 143.447H160.526L159.77 139.969ZM160.76 144.52H165.549L166.306 147.999H161.516L160.76 144.52ZM161.752 149.072H166.542L167.299 152.551H162.509L161.752 149.072ZM163.502 157.102L162.745 153.624H167.535L168.292 157.102H163.502Z" fill="black"/>
<path d="M163.699 116.911C163.707 116.928 163.814 119.052 162.579 118.846C161.885 118.731 161.572 115.895 160.301 113.957C160.003 113.503 158.929 110.439 158.701 109.968C158.335 109.208 159.573 109.059 159.851 109.377C160.071 109.627 160.658 110.833 161.648 112.486C162.771 114.348 163.482 116.368 163.699 116.911Z" fill="url(#paint42_linear_122_323)"/>
<path d="M164.222 140.321C163.662 140.053 162.385 139.69 162.177 138.983C162.172 138.963 162.172 138.946 162.166 138.926C162.006 138.273 162.501 138.174 163.063 138.293C163.64 138.414 165.336 138.726 165.336 138.726C165.336 138.726 165.634 139.431 165.634 139.847C165.634 140.27 164.773 140.585 164.222 140.321Z" fill="black"/>
<path d="M165.282 138.36L165.327 138.67C165.344 138.791 165.285 138.912 165.175 138.969C164.984 139.062 164.655 139.174 164.247 139.107C164.123 139.084 164.025 138.986 164.005 138.862L163.949 138.47L165.282 138.36Z" fill="white"/>
<path d="M163.024 144.999C162.391 144.698 160.94 144.284 160.706 143.481C160.698 143.458 160.701 143.439 160.695 143.419C160.515 142.678 161.075 142.566 161.713 142.698C162.368 142.836 164.292 143.191 164.292 143.191C164.292 143.191 164.638 143.999 164.638 144.602C164.635 145.205 163.648 145.298 163.024 144.999Z" fill="black"/>
<path d="M164.227 142.774L164.278 143.123C164.427 143.625 163.516 143.695 163.055 143.616C162.914 143.591 162.802 143.481 162.782 143.337L162.717 142.892L164.227 142.774Z" fill="white"/>
<path d="M165.648 126.646C165.648 126.646 165.988 127.727 166.081 129.043C166.196 130.693 164.675 132.445 164.815 133.524C165.068 135.465 165.614 137.493 165.67 138.073C165.727 138.656 163.654 138.988 163.502 138.36C163.35 137.732 161.857 134.496 161.696 133.575C161.418 131.989 163.375 131.259 163.375 131.259C163.375 131.259 163.178 135.744 163.42 137.073C163.558 137.828 164.436 142.09 164.531 142.653C164.557 142.808 164.275 143.244 163.721 143.343C163.133 143.447 162.444 143.289 162.352 143.053C162.113 142.433 161.266 137.825 161.134 137.107C160.999 136.389 160.608 129.578 160.493 129.074C160.374 128.567 165.417 126.133 165.648 126.646Z" fill="url(#paint43_linear_122_323)"/>
<path d="M159.134 119.241C159.123 121.212 160.352 129.271 160.602 129.358C162.172 129.899 165.983 127.606 165.932 126.987C165.597 122.928 164.275 116.928 163.477 116.731C161.798 116.311 159.14 118.275 159.134 119.241Z" fill="url(#paint44_linear_122_323)"/>
<path d="M164.531 103.229C164.531 106.574 161.826 109.287 158.483 109.287C155.143 109.287 152.438 106.574 152.438 103.229C152.438 99.8845 155.143 97.175 158.483 97.175C161.822 97.175 164.531 99.8845 164.531 103.229Z" fill="url(#paint45_linear_122_323)"/>
<path d="M153.352 105V102.091H154.335C154.563 102.091 154.75 102.132 154.895 102.214C155.041 102.296 155.149 102.406 155.219 102.545C155.289 102.685 155.324 102.84 155.324 103.011C155.324 103.183 155.289 103.339 155.219 103.479C155.15 103.619 155.043 103.731 154.898 103.814C154.753 103.896 154.567 103.938 154.341 103.938H153.636V103.625H154.33C154.486 103.625 154.611 103.598 154.706 103.544C154.801 103.49 154.869 103.417 154.912 103.325C154.955 103.232 154.977 103.128 154.977 103.011C154.977 102.895 154.955 102.791 154.912 102.699C154.869 102.607 154.8 102.535 154.705 102.483C154.609 102.43 154.482 102.403 154.324 102.403H153.705V105H153.352ZM156.062 105.818C156.005 105.818 155.954 105.813 155.91 105.804C155.865 105.795 155.835 105.787 155.817 105.778L155.903 105.483C155.984 105.504 156.056 105.511 156.119 105.506C156.181 105.5 156.237 105.472 156.285 105.422C156.334 105.373 156.379 105.293 156.42 105.182L156.482 105.011L155.675 102.818H156.039L156.641 104.557H156.664L157.266 102.818H157.63L156.704 105.318C156.662 105.431 156.611 105.524 156.549 105.598C156.487 105.673 156.416 105.728 156.335 105.764C156.254 105.8 156.163 105.818 156.062 105.818ZM159.021 102.818V103.102H157.891V102.818H159.021ZM158.22 102.295H158.555V104.375C158.555 104.47 158.569 104.541 158.597 104.588C158.625 104.634 158.661 104.666 158.705 104.682C158.749 104.697 158.796 104.705 158.845 104.705C158.882 104.705 158.912 104.703 158.936 104.699C158.96 104.694 158.979 104.69 158.993 104.688L159.061 104.989C159.038 104.997 159.007 105.006 158.966 105.014C158.925 105.024 158.874 105.028 158.811 105.028C158.716 105.028 158.624 105.008 158.533 104.967C158.443 104.927 158.368 104.865 158.308 104.781C158.25 104.698 158.22 104.593 158.22 104.466V102.295ZM160.388 105.045C160.192 105.045 160.019 104.999 159.87 104.905C159.722 104.811 159.607 104.68 159.523 104.511C159.441 104.343 159.4 104.146 159.4 103.92C159.4 103.693 159.441 103.495 159.523 103.325C159.607 103.156 159.722 103.024 159.87 102.93C160.019 102.837 160.192 102.79 160.388 102.79C160.585 102.79 160.758 102.837 160.906 102.93C161.054 103.024 161.17 103.156 161.252 103.325C161.335 103.495 161.377 103.693 161.377 103.92C161.377 104.146 161.335 104.343 161.252 104.511C161.17 104.68 161.054 104.811 160.906 104.905C160.758 104.999 160.585 105.045 160.388 105.045ZM160.388 104.744C160.538 104.744 160.661 104.706 160.758 104.629C160.854 104.553 160.926 104.452 160.972 104.327C161.019 104.202 161.042 104.066 161.042 103.92C161.042 103.775 161.019 103.639 160.972 103.513C160.926 103.387 160.854 103.285 160.758 103.207C160.661 103.13 160.538 103.091 160.388 103.091C160.239 103.091 160.116 103.13 160.019 103.207C159.923 103.285 159.851 103.387 159.805 103.513C159.758 103.639 159.735 103.775 159.735 103.92C159.735 104.066 159.758 104.202 159.805 104.327C159.851 104.452 159.923 104.553 160.019 104.629C160.116 104.706 160.239 104.744 160.388 104.744ZM162.224 103.688V105H161.889V102.818H162.213V103.159H162.241C162.292 103.048 162.37 102.959 162.474 102.892C162.578 102.824 162.713 102.79 162.877 102.79C163.025 102.79 163.154 102.82 163.265 102.881C163.376 102.94 163.462 103.031 163.524 103.153C163.585 103.275 163.616 103.428 163.616 103.614V105H163.281V103.636C163.281 103.465 163.236 103.331 163.147 103.236C163.058 103.139 162.936 103.091 162.781 103.091C162.674 103.091 162.578 103.114 162.494 103.161C162.411 103.207 162.345 103.275 162.297 103.364C162.248 103.453 162.224 103.561 162.224 103.688Z" fill="#431CA3"/>
<path d="M155.815 126.575C155.576 126.727 155.441 126.891 155.272 127.144C155.019 127.508 155.554 128.606 155.888 128.296C155.821 127.953 156.322 127.787 156.502 127.699C157.095 127.418 157.154 127.127 157.115 126.902C157.005 126.285 156.558 126.102 155.815 126.575Z" fill="#F4778D"/>
<path d="M158.912 124.06C158.864 124.759 156.935 125.719 156.642 126.156C156.375 126.556 156.606 127.144 157.354 127.091C157.733 127.051 160.9 125.328 160.971 124.677C161.097 123.497 161.125 118.362 159.671 118.503C158.428 118.621 158.963 123.362 158.912 124.06Z" fill="url(#paint46_linear_122_323)"/>
<path d="M162.051 113.793C161.854 112.45 160.768 111.909 159.384 112.509C157.731 113.23 158.403 114.537 158.507 115.109C158.639 115.847 158.954 117.3 159.365 117.413C159.66 117.494 159.871 117.359 160.18 117.255C160.287 117.652 160.273 117.869 160.338 117.923C160.639 118.173 162.09 117.509 162.034 117.027C162.008 116.807 161.966 116.444 161.941 116.083C161.834 115.137 162.214 114.892 162.051 113.793Z" fill="#F4778D"/>
<path d="M160.107 114.847C159.854 114.743 159.601 114.886 159.494 115.407C159.486 115.447 159.233 115.545 159.238 115.469C159.415 113.695 158.6 114.196 158.42 113.906C158.411 113.12 158.704 112.517 159.567 112.253C160.971 111.822 162.34 112.441 162.537 113.788C162.672 114.709 162.039 115.34 162.073 116.261C162.079 116.387 161.992 116.351 161.724 116.416C161.516 116.466 161.274 116.697 161.061 116.658C160.793 116.607 160.206 116.066 160.276 115.711C160.343 115.388 160.366 114.954 160.107 114.847Z" fill="#A2001D"/>
<path d="M163.828 138.524C163.828 138.524 163.28 135.054 163.333 134.307C163.387 133.561 163.592 129.62 163.592 129.62L164.121 129.147C164.121 129.147 163.598 133.538 163.665 134.834C163.733 136.13 163.828 138.524 163.828 138.524Z" fill="url(#paint47_linear_122_323)"/>
<path d="M158.588 109.537C158.465 109.318 158.591 108.512 158.785 108.014C158.993 107.476 159.365 106.4 159.66 106.535C159.846 106.619 159.592 107.439 159.592 108.312C159.592 108.867 159.443 109.405 159.351 109.653C159.283 109.839 158.757 109.864 158.588 109.537Z" fill="#F4778D"/>
<path d="M88.4756 97.9918C88.4756 94.6879 85.8009 92.0092 82.5018 92.0092C79.2028 92.0092 76.5281 94.6879 76.5281 97.9918C76.5281 101.296 79.2028 103.974 82.5018 103.974C85.8009 103.977 88.4756 101.299 88.4756 97.9918Z" fill="url(#paint48_linear_122_323)"/>
<path d="M80.3665 97.5H79.9261C79.9001 97.3733 79.8545 97.2621 79.7894 97.1662C79.7255 97.0703 79.6474 96.9898 79.555 96.9247C79.4639 96.8584 79.3627 96.8087 79.2514 96.7756C79.1402 96.7424 79.0241 96.7259 78.9034 96.7259C78.6832 96.7259 78.4838 96.7815 78.305 96.8928C78.1275 97.004 77.986 97.168 77.8807 97.3846C77.7765 97.6012 77.7244 97.867 77.7244 98.1818C77.7244 98.4967 77.7765 98.7624 77.8807 98.979C77.986 99.1957 78.1275 99.3596 78.305 99.4709C78.4838 99.5821 78.6832 99.6378 78.9034 99.6378C79.0241 99.6378 79.1402 99.6212 79.2514 99.5881C79.3627 99.5549 79.4639 99.5058 79.555 99.4407C79.6474 99.3744 79.7255 99.2933 79.7894 99.1974C79.8545 99.1004 79.9001 98.9891 79.9261 98.8636H80.3665C80.3333 99.0495 80.273 99.2158 80.1854 99.3626C80.0978 99.5094 79.9889 99.6342 79.8587 99.7372C79.7285 99.839 79.5823 99.9165 79.4201 99.9698C79.2591 100.023 79.0869 100.05 78.9034 100.05C78.5933 100.05 78.3175 99.974 78.076 99.8224C77.8345 99.6709 77.6445 99.4555 77.506 99.1761C77.3675 98.8968 77.2983 98.5653 77.2983 98.1818C77.2983 97.7983 77.3675 97.4669 77.506 97.1875C77.6445 96.9081 77.8345 96.6927 78.076 96.5412C78.3175 96.3897 78.5933 96.3139 78.9034 96.3139C79.0869 96.3139 79.2591 96.3406 79.4201 96.3938C79.5823 96.4471 79.7285 96.5252 79.8587 96.6282C79.9889 96.73 80.0978 96.8543 80.1854 97.0011C80.273 97.1467 80.3333 97.313 80.3665 97.5ZM83.0667 97.2727C83.0454 97.0928 82.959 96.9531 82.8074 96.8537C82.6559 96.7543 82.4701 96.7045 82.2499 96.7045C82.0889 96.7045 81.9481 96.7306 81.8273 96.7827C81.7078 96.8348 81.6143 96.9064 81.5468 96.9975C81.4805 97.0887 81.4474 97.1922 81.4474 97.3082C81.4474 97.4053 81.4704 97.4888 81.5166 97.5586C81.564 97.6272 81.6243 97.6847 81.6977 97.7308C81.7711 97.7758 81.848 97.8131 81.9285 97.8427C82.009 97.8711 82.083 97.8942 82.1505 97.9119L82.5198 98.0114C82.6145 98.0362 82.7198 98.0705 82.8358 98.1143C82.953 98.1581 83.0649 98.2179 83.1714 98.2937C83.2791 98.3683 83.3679 98.4641 83.4378 98.5813C83.5076 98.6985 83.5425 98.8423 83.5425 99.0128C83.5425 99.2093 83.491 99.3868 83.3881 99.5455C83.2863 99.7041 83.1371 99.8301 82.9406 99.9237C82.7453 100.017 82.508 100.064 82.2286 100.064C81.9682 100.064 81.7427 100.022 81.5521 99.9379C81.3627 99.8538 81.2136 99.7366 81.1047 99.5863C80.997 99.436 80.936 99.2614 80.9218 99.0625H81.3763C81.3882 99.1998 81.4343 99.3134 81.5148 99.4034C81.5965 99.4922 81.6995 99.5585 81.8238 99.6023C81.9492 99.6449 82.0842 99.6662 82.2286 99.6662C82.3967 99.6662 82.5476 99.639 82.6814 99.5845C82.8151 99.5289 82.9211 99.4519 82.9992 99.3537C83.0773 99.2543 83.1164 99.1383 83.1164 99.0057C83.1164 98.8849 83.0827 98.7867 83.0152 98.7109C82.9477 98.6352 82.8589 98.5736 82.7488 98.5263C82.6388 98.4789 82.5198 98.4375 82.392 98.402L81.9445 98.2741C81.6604 98.1925 81.4355 98.0759 81.2698 97.9244C81.1041 97.7728 81.0212 97.5746 81.0212 97.3295C81.0212 97.1259 81.0763 96.9484 81.1863 96.7969C81.2976 96.6442 81.4468 96.5258 81.6338 96.4418C81.822 96.3565 82.0321 96.3139 82.2641 96.3139C82.4985 96.3139 82.7068 96.3559 82.8891 96.44C83.0714 96.5228 83.2158 96.6365 83.3224 96.7809C83.4301 96.9253 83.4869 97.0893 83.4928 97.2727H83.0667ZM86.2551 97.2727C86.2338 97.0928 86.1474 96.9531 85.9959 96.8537C85.8444 96.7543 85.6586 96.7045 85.4384 96.7045C85.2774 96.7045 85.1365 96.7306 85.0158 96.7827C84.8962 96.8348 84.8027 96.9064 84.7353 96.9975C84.669 97.0887 84.6358 97.1922 84.6358 97.3082C84.6358 97.4053 84.6589 97.4888 84.7051 97.5586C84.7524 97.6272 84.8128 97.6847 84.8862 97.7308C84.9596 97.7758 85.0365 97.8131 85.117 97.8427C85.1975 97.8711 85.2715 97.8942 85.339 97.9119L85.7083 98.0114C85.803 98.0362 85.9083 98.0705 86.0243 98.1143C86.1415 98.1581 86.2534 98.2179 86.3599 98.2937C86.4676 98.3683 86.5564 98.4641 86.6262 98.5813C86.6961 98.6985 86.731 98.8423 86.731 99.0128C86.731 99.2093 86.6795 99.3868 86.5765 99.5455C86.4747 99.7041 86.3256 99.8301 86.1291 99.9237C85.9338 100.017 85.6964 100.064 85.4171 100.064C85.1567 100.064 84.9312 100.022 84.7406 99.9379C84.5512 99.8538 84.402 99.7366 84.2931 99.5863C84.1854 99.436 84.1245 99.2614 84.1103 99.0625H84.5648C84.5766 99.1998 84.6228 99.3134 84.7033 99.4034C84.785 99.4922 84.888 99.5585 85.0123 99.6023C85.1377 99.6449 85.2727 99.6662 85.4171 99.6662C85.5852 99.6662 85.7361 99.639 85.8699 99.5845C86.0036 99.5289 86.1096 99.4519 86.1877 99.3537C86.2658 99.2543 86.3049 99.1383 86.3049 99.0057C86.3049 98.8849 86.2711 98.7867 86.2037 98.7109C86.1362 98.6352 86.0474 98.5736 85.9373 98.5263C85.8272 98.4789 85.7083 98.4375 85.5804 98.402L85.133 98.2741C84.8489 98.1925 84.624 98.0759 84.4583 97.9244C84.2926 97.7728 84.2097 97.5746 84.2097 97.3295C84.2097 97.1259 84.2647 96.9484 84.3748 96.7969C84.4861 96.6442 84.6352 96.5258 84.8223 96.4418C85.0105 96.3565 85.2206 96.3139 85.4526 96.3139C85.687 96.3139 85.8953 96.3559 86.0776 96.44C86.2599 96.5228 86.4043 96.6365 86.5108 96.7809C86.6185 96.9253 86.6754 97.0893 86.6813 97.2727H86.2551Z" fill="#125CAE"/>
<path d="M78.8484 127.274C78.8484 127.274 78.8316 127.564 78.8231 127.809C78.8203 127.874 78.8203 127.936 78.8203 127.989C78.8203 128.065 79.2084 128.127 79.5263 128.04C79.7766 127.972 79.9931 127.778 79.8919 127.663C79.785 127.544 79.6753 127.127 79.6753 127.127L78.8484 127.274Z" fill="white"/>
<path d="M78.8259 127.809C78.8259 127.809 79.4081 128.063 79.8947 127.663C80.1562 127.651 82.3781 128.139 82.1559 128.494C81.9309 128.854 79.0537 129.001 78.8006 128.809C78.7022 128.736 78.7247 128.054 78.8259 127.809Z" fill="black"/>
<path d="M74.1966 126.663C74.1966 126.663 74.146 126.947 74.1122 127.189C74.1038 127.254 74.0954 127.313 74.0897 127.37C74.0813 127.446 74.461 127.55 74.7872 127.499C75.0432 127.46 75.2822 127.291 75.1922 127.164C75.0994 127.034 75.0347 126.609 75.0347 126.609L74.1966 126.663Z" fill="#EBAFAF"/>
<path d="M78.12 115.151L76.1766 114.359C76.0388 116.365 76.2328 117.956 75.6675 120.981C75.4285 122.255 74.2641 125.218 73.8113 126.668C73.9435 126.978 75.2541 127.015 75.4341 126.691C75.6675 126.195 77.1947 123.376 77.6138 121.573C77.805 120.739 78.1285 117.168 78.12 115.151ZM74.1122 127.192C74.1122 127.192 74.6607 127.51 75.1894 127.167C75.451 127.184 77.6082 127.615 77.3691 128.088C77.2735 128.277 74.2078 128.403 73.9772 128.186C73.89 128.099 73.9885 127.426 74.1122 127.192Z" fill="black"/>
<path d="M76.9162 105.952C76.9162 105.952 77.0878 105.374 77.0428 105.09C76.9978 104.805 76.3594 104.417 76.2581 103.822C76.1569 103.228 76.5 102.431 77.3887 102.369C78.7303 102.273 78.6881 103.324 78.7359 103.687C78.8147 104.276 78.7528 105.214 78.6178 105.279C78.5784 105.298 78.4125 105.318 78.1228 105.219C78.0722 105.366 77.9428 106.05 78.0412 106.262C78.1397 106.473 76.9162 105.952 76.9162 105.952Z" fill="white"/>
<path d="M76.244 113.075C76.1765 113.514 76.1315 113.999 76.1737 114.362C76.3875 116.106 77.6784 118.292 78.1172 121.201C78.3112 122.483 78.4069 125.967 78.4631 127.322C78.629 127.618 79.934 127.505 80.0775 127.167C79.934 126.53 80.5922 122.26 80.4065 120.094C80.3278 119.168 78.975 112.717 78.975 112.717C78.975 112.717 77.144 112.557 76.244 113.075Z" fill="black"/>
<path d="M78.165 106.031C78.165 106.031 77.3325 105.49 76.6547 105.597C76.5591 105.659 76.5281 105.955 76.3987 106.312C76.2581 106.704 76.0219 107.18 75.9656 107.718C75.87 108.661 76.05 111.222 75.8728 113.602C76.1512 114.05 78.3028 114.74 79.4391 113.729C79.4391 113.729 79.1437 112.267 79.0762 111.084C79.0059 109.858 79.8356 109.729 79.6781 108.763C79.5769 108.143 78.4462 107.408 78.1397 106.476C78.1003 106.352 78.1875 106.169 78.165 106.031Z" fill="url(#paint49_linear_122_323)"/>
<path d="M78.6516 102.493C79.0932 103.498 77.7347 103.445 77.3832 105.259C77.1554 106.431 75.9207 106.831 75.9657 108.599C75.1894 108.447 74.8576 107.174 75.6816 105.724C76.2104 104.794 75.7801 103.842 75.9291 103.101C76.2272 101.628 78.2354 101.549 78.6516 102.493Z" fill="url(#paint50_linear_122_323)"/>
<path d="M76.8938 107.69C76.9753 107.047 77.5913 107.076 78.6853 106.895C79.1972 106.811 80.1394 106.619 80.865 106.369C81.1603 106.267 81.5906 103.315 81.6328 102.521C81.6497 102.177 81.4022 102.101 81.2503 101.814C81.1013 101.53 81.0113 101.045 81.1631 100.997C81.2756 100.961 81.3656 101.397 81.45 101.417C81.4191 101.079 81.3234 100.563 81.4556 100.225C81.5878 99.8874 82.0772 100.104 82.1925 100.214C82.3331 100.347 82.3753 100.558 82.4006 100.862C82.4344 101.225 82.5666 101.71 82.4513 101.955C82.3528 102.169 82.26 102.459 82.2628 102.611C82.2656 102.763 82.2235 107.022 81.8466 107.273C81.3347 107.614 79.9116 108.059 78.5981 108.287C77.5575 108.464 76.8291 108.194 76.8938 107.69Z" fill="white"/>
<path d="M168.924 133.806C168.924 129.688 172.257 126.35 176.369 126.35C180.481 126.35 183.814 129.688 183.814 133.806C183.814 137.924 180.481 141.261 176.369 141.261C172.257 141.259 168.924 137.921 168.924 133.806Z" fill="url(#paint51_linear_122_323)"/>
<path d="M173.932 130.182H174.636V134.341C174.636 134.712 174.568 135.027 174.432 135.287C174.295 135.546 174.103 135.743 173.855 135.878C173.607 136.012 173.314 136.08 172.977 136.08C172.659 136.08 172.376 136.022 172.128 135.906C171.88 135.789 171.685 135.622 171.543 135.406C171.401 135.19 171.33 134.934 171.33 134.636H172.023C172.023 134.801 172.063 134.945 172.145 135.068C172.228 135.189 172.342 135.284 172.486 135.352C172.63 135.42 172.794 135.455 172.977 135.455C173.18 135.455 173.352 135.412 173.494 135.327C173.636 135.241 173.744 135.116 173.818 134.952C173.894 134.785 173.932 134.581 173.932 134.341V130.182ZM179.23 131.636C179.196 131.348 179.058 131.125 178.815 130.966C178.573 130.807 178.276 130.727 177.923 130.727C177.666 130.727 177.44 130.769 177.247 130.852C177.056 130.936 176.906 131.05 176.798 131.196C176.692 131.342 176.639 131.508 176.639 131.693C176.639 131.848 176.676 131.982 176.75 132.094C176.826 132.204 176.922 132.295 177.04 132.369C177.157 132.441 177.28 132.501 177.409 132.548C177.538 132.594 177.656 132.631 177.764 132.659L178.355 132.818C178.507 132.858 178.675 132.913 178.861 132.983C179.048 133.053 179.227 133.149 179.398 133.27C179.57 133.389 179.712 133.543 179.824 133.73C179.936 133.918 179.991 134.148 179.991 134.42C179.991 134.735 179.909 135.019 179.744 135.273C179.581 135.527 179.343 135.728 179.028 135.878C178.716 136.027 178.336 136.102 177.889 136.102C177.473 136.102 177.112 136.035 176.807 135.901C176.504 135.766 176.265 135.579 176.091 135.338C175.919 135.098 175.821 134.818 175.798 134.5H176.526C176.545 134.72 176.618 134.902 176.747 135.045C176.878 135.187 177.043 135.294 177.241 135.364C177.442 135.432 177.658 135.466 177.889 135.466C178.158 135.466 178.4 135.422 178.614 135.335C178.828 135.246 178.997 135.123 179.122 134.966C179.247 134.807 179.31 134.621 179.31 134.409C179.31 134.216 179.256 134.059 179.148 133.938C179.04 133.816 178.898 133.718 178.722 133.642C178.545 133.566 178.355 133.5 178.151 133.443L177.435 133.239C176.98 133.108 176.62 132.921 176.355 132.679C176.09 132.437 175.957 132.119 175.957 131.727C175.957 131.402 176.045 131.117 176.222 130.875C176.4 130.631 176.638 130.441 176.938 130.307C177.239 130.17 177.575 130.102 177.946 130.102C178.321 130.102 178.654 130.17 178.946 130.304C179.238 130.437 179.469 130.618 179.639 130.849C179.812 131.08 179.902 131.343 179.912 131.636H179.23Z" fill="#731BA3"/>
<path d="M183.946 127.074L184.657 127.341C184.888 127.429 185.071 127.612 185.158 127.843L185.498 128.755C185.625 129.096 185.647 129.468 185.563 129.82C185.448 130.302 185.217 130.744 184.897 131.119C186.37 131.324 187.557 131.355 189.003 131.107C188.62 129.91 188.328 128.868 187.495 127.922L187.18 127.547C187.29 127.527 187.566 125.023 187.228 124.446C186.57 123.319 185.234 123.556 184.852 123.821C184.297 124.269 184.424 124.792 184.213 125.004C183.98 125.24 183.786 125.249 183.774 125.344C183.763 125.44 183.89 125.528 183.929 125.59C183.881 126.063 183.687 126.44 183.696 126.733C183.701 126.854 183.828 127.029 183.946 127.074Z" fill="white"/>
<path opacity="0.35" d="M185.158 127.843L185.316 128.265C185.181 127.575 185.698 127.254 185.698 127.254C185.695 127.254 185.437 127.347 185.017 127.322C184.815 127.311 184.517 127.243 184.371 127.203C184.224 127.161 184.013 127.099 184.013 127.099L184.657 127.342C184.888 127.426 185.071 127.609 185.158 127.843Z" fill="#FF637E"/>
<path d="M195.154 154.97C195.154 154.97 195.438 155.331 196.043 155.714C196.633 156.086 197.224 156.452 197.137 156.626C197.049 156.801 195.64 158.863 194.816 159.339C193.992 159.818 194.698 158.919 194.743 158.702C194.788 158.485 195.207 157.452 194.861 156.973C194.515 156.497 194.102 156.212 194.212 155.995C194.318 155.779 194.861 154.824 195.154 154.97Z" fill="white"/>
<path d="M189.118 141.729C189.118 141.729 188.986 147.531 189.681 148.574C190.375 149.616 194.636 153.291 195.562 155.142C195.562 155.142 194.985 156.531 193.944 156.474C193.944 156.474 191.557 153.666 189.799 152.615C188.3 151.72 187.414 150.948 187.096 150.165C186.778 149.382 184.407 142.002 184.407 142.002L189.118 141.729ZM196.307 155.88C196.307 155.88 196.487 156.364 195.955 156.688C195.505 156.962 194.788 156.908 194.825 157.367C194.864 157.871 194.726 158.728 194.321 159.223C194.026 159.587 193.174 160.274 193.365 160.443C193.503 160.567 194.884 160.795 196.391 159.313C197.975 157.756 198.023 156.945 197.952 156.778C197.854 156.567 197.12 155.993 196.307 155.88Z" fill="black"/>
<path d="M183.44 157.733C183.44 157.733 183.462 158.95 183.352 159.252C183.243 159.556 180.731 159.511 180.166 159.035C179.603 158.556 181.51 158.449 181.879 158.077C182.045 157.911 182.23 157.449 182.23 157.449L183.44 157.733Z" fill="white"/>
<path d="M188.944 138.357C188.944 138.357 189.596 140.047 189.501 141.27C189.318 143.63 186.286 148.689 185.937 149.731C185.591 150.773 186.314 152.393 185.619 154.072C184.925 155.75 183.713 157.891 183.684 158.007C183.656 158.122 182.216 158.271 181.904 157.533C182.211 156.536 182.762 154.655 182.964 152.945C183.167 151.238 183.507 149.024 183.566 147.954C183.625 146.884 184.989 138.526 184.989 138.526C184.989 138.526 185.563 138.617 188.944 138.357ZM183.431 158.522C183.431 158.522 183.265 159.252 182.543 159.063C181.82 158.874 182.109 158.409 181.865 158.221C181.713 158.102 181.353 158.176 180.56 158.353C179.553 158.578 177.944 158.683 177.941 159.252C177.941 159.528 179.17 160.189 180.638 160.35C182.107 160.511 183.538 160.206 183.696 160.119C183.859 160.032 183.738 158.978 183.431 158.522Z" fill="black"/>
<path d="M185.408 129.795C185.614 129.012 186.604 128.403 187.481 128.598C188.198 128.755 189.059 130.167 189.203 131.268C189.346 132.366 188.663 137.214 189.419 138.994C189.419 138.994 185.572 140.216 184.07 139.707C184.07 139.707 184.539 137.997 184.686 136.71C184.958 134.301 183.954 134.028 183.985 132.707C184.008 131.876 185.248 130.403 185.408 129.795Z" fill="url(#paint52_linear_122_323)"/>
<path d="M187.287 130.322C187.858 130.212 188.345 130.721 188.558 132.223C188.828 134.107 189.118 136.839 188.955 137.698C188.862 138.177 185.923 137.563 183.302 136.665C182.9 136.527 182.348 136.997 181.974 136.966C181.246 136.904 180.11 136.563 180.287 136.169C180.391 135.935 181.142 135.803 181.103 135.772L180.183 135.425C180.205 135.2 180.703 135.27 181.204 135.177C181.941 135.045 182.585 135.18 183.308 135.453C183.822 135.648 186.269 136.169 187.217 135.994C187.065 134.935 186.863 133.631 186.756 132.955C186.511 131.389 186.373 130.499 187.287 130.322Z" fill="white"/>
<path d="M186.533 133.102C187.144 132.966 187.757 132.918 188.384 132.876C188.527 132.868 188.668 132.857 188.812 132.848C188.786 132.617 188.758 132.392 188.727 132.181C188.513 130.679 187.822 129.812 187.239 130C186.365 130.285 186.266 131.395 186.508 132.958C186.517 133.003 186.525 133.051 186.533 133.102Z" fill="url(#paint53_linear_122_323)"/>
<path d="M187.003 123.19C185.839 122.762 184.987 123.519 184.854 123.818C185.74 123.928 185.107 124.846 185.757 125.339C186.359 125.795 186.075 126.477 186.196 127.668C186.393 129.589 188.707 129.206 189.138 130.927C190.004 128.693 187.869 127.643 188.108 126.173C188.353 124.663 187.968 123.545 187.003 123.19Z" fill="black"/>
<path d="M68.1947 137.208C72.3436 137.208 75.7069 133.84 75.7069 129.685C75.7069 125.53 72.3436 122.162 68.1947 122.162C64.0458 122.162 60.6825 125.53 60.6825 129.685C60.6825 133.84 64.0458 137.208 68.1947 137.208Z" fill="url(#paint54_linear_122_323)"/>
<path d="M62.3523 131V128.091H62.7045V129.386H64.2557V128.091H64.608V131H64.2557V129.699H62.7045V131H62.3523ZM65.1541 128.403V128.091H67.3359V128.403H66.4212V131H66.0689V128.403H65.1541ZM67.8796 128.091H68.3001L69.2887 130.506H69.3228L70.3114 128.091H70.7319V131H70.4023V128.79H70.3739L69.4648 131H69.1467L68.2376 128.79H68.2092V131H67.8796V128.091ZM71.4382 131V128.091H71.7905V130.688H73.1428V131H71.4382ZM74.5462 131.04C74.3795 131.04 74.2294 131.007 74.0959 130.94C73.9624 130.874 73.8554 130.783 73.7749 130.668C73.6944 130.552 73.6503 130.42 73.6428 130.273H73.9837C73.9969 130.404 74.0566 130.513 74.1626 130.599C74.2696 130.685 74.3975 130.727 74.5462 130.727C74.6655 130.727 74.7715 130.699 74.8643 130.643C74.9581 130.588 75.0315 130.511 75.0845 130.413C75.1385 130.315 75.1655 130.204 75.1655 130.08C75.1655 129.953 75.1375 129.839 75.0817 129.74C75.0268 129.64 74.951 129.561 74.8544 129.503C74.7578 129.445 74.6475 129.416 74.5234 129.415C74.4344 129.414 74.343 129.428 74.2493 129.456C74.1555 129.483 74.0784 129.519 74.0178 129.562L73.6882 129.523L73.8643 128.091H75.3757V128.403H74.1598L74.0575 129.261H74.0746C74.1342 129.214 74.209 129.175 74.299 129.143C74.389 129.112 74.4827 129.097 74.5803 129.097C74.7583 129.097 74.9169 129.139 75.0561 129.224C75.1963 129.309 75.3061 129.424 75.3857 129.571C75.4661 129.718 75.5064 129.885 75.5064 130.074C75.5064 130.259 75.4647 130.425 75.3814 130.571C75.299 130.716 75.1854 130.83 75.0405 130.915C74.8956 130.998 74.7308 131.04 74.5462 131.04Z" fill="#431CA3"/>
<path d="M61.4335 123.333L60.6319 123.632C60.3703 123.731 60.165 123.936 60.0694 124.195L59.6869 125.221C59.5436 125.604 59.5181 126.022 59.6138 126.42C59.7432 126.961 60.0019 127.463 60.3647 127.885C58.7025 128.116 57.3666 128.153 55.7382 127.871C56.1685 126.522 56.4975 125.347 57.4341 124.283L57.7885 123.86C57.6647 123.838 57.3525 121.018 57.7322 120.365C58.4719 119.094 59.9766 119.362 60.4097 119.66C61.0341 120.165 60.8907 120.753 61.1297 120.993C61.3941 121.257 61.6135 121.269 61.6247 121.376C61.6388 121.483 61.4953 121.584 61.4503 121.652C61.5038 122.184 61.7232 122.609 61.7119 122.939C61.7091 123.086 61.5685 123.283 61.4335 123.333Z" fill="#680416"/>
<path d="M48.8081 154.756C48.8081 154.756 48.4875 155.162 47.8069 155.593C47.1431 156.012 46.4766 156.424 46.5722 156.621C46.6706 156.815 48.2569 159.139 49.185 159.677C50.1131 160.215 49.3172 159.204 49.2694 158.959C49.2216 158.714 48.7462 157.547 49.1372 157.009C49.5281 156.471 49.9922 156.153 49.8684 155.908C49.7475 155.669 49.1372 154.593 48.8081 154.756Z" fill="black"/>
<path d="M55.606 139.839C55.606 139.839 55.755 146.377 54.9732 147.551C54.1913 148.726 49.3904 152.866 48.3497 154.95C48.3497 154.95 48.9994 156.514 50.1722 156.449C50.1722 156.449 52.861 153.286 54.841 152.103C56.5285 151.094 57.5269 150.224 57.8869 149.342C58.2441 148.461 60.9132 140.149 60.9132 140.149L55.606 139.839Z" fill="url(#paint55_linear_122_323)"/>
<path d="M47.5087 155.784C47.5087 155.784 47.3062 156.331 47.9053 156.697C48.4115 157.007 49.2215 156.945 49.1794 157.463C49.1344 158.029 49.289 158.998 49.7475 159.556C50.0822 159.964 51.0412 160.739 50.8247 160.93C50.67 161.068 49.1147 161.327 47.4187 159.66C45.6328 157.905 45.5794 156.99 45.6609 156.807C45.7678 156.553 46.5947 155.908 47.5087 155.784ZM62.0044 157.869C62.0044 157.869 61.979 159.237 62.1028 159.581C62.2237 159.925 65.0559 159.874 65.6915 159.336C66.3272 158.798 64.1784 158.674 63.7622 158.26C63.5765 158.074 63.3684 157.553 63.3684 157.553L62.0044 157.869Z" fill="black"/>
<path d="M55.8029 136.042C55.8029 136.042 55.0688 137.946 55.1757 139.324C55.381 141.983 58.7982 147.681 59.1891 148.855C59.58 150.03 58.7672 151.855 59.5463 153.745C60.3282 155.635 61.695 158.049 61.7288 158.178C61.7625 158.308 63.3854 158.474 63.7313 157.643C63.3882 156.519 62.7666 154.398 62.5388 152.475C62.311 150.551 61.9257 148.058 61.861 146.853C61.7963 145.647 60.2579 136.234 60.2579 136.234C60.2579 136.234 59.611 136.335 55.8029 136.042Z" fill="url(#paint56_linear_122_323)"/>
<path d="M62.0129 158.759C62.0129 158.759 62.2013 159.581 63.0141 159.37C63.8269 159.159 63.5035 158.632 63.7763 158.423C63.9479 158.291 64.3529 158.373 65.2444 158.573C66.3779 158.826 68.1919 158.945 68.1919 159.584C68.1919 159.897 66.8082 160.643 65.1544 160.82C63.5007 161.001 61.8891 160.657 61.7091 160.558C61.5319 160.46 61.6697 159.274 62.0129 158.759Z" fill="black"/>
<path d="M59.7853 126.398C59.5547 125.516 58.4381 124.832 57.4481 125.049C56.6381 125.226 55.6706 126.815 55.5075 128.054C55.3444 129.293 56.115 134.752 55.2628 136.758C55.2628 136.758 59.5941 138.135 61.2872 137.56C61.2872 137.56 60.7556 135.634 60.5925 134.186C60.2859 131.474 61.4166 131.167 61.38 129.677C61.3631 128.741 59.9653 127.082 59.7853 126.398Z" fill="url(#paint57_linear_122_323)"/>
<path d="M57.6703 126.992C57.029 126.868 56.4806 127.443 56.2387 129.133C55.935 131.254 55.6087 134.332 55.7943 135.299C55.8984 135.839 59.2087 135.146 62.1647 134.135C62.6175 133.98 63.2362 134.51 63.6609 134.473C64.4793 134.403 65.759 134.02 65.5622 133.575C65.444 133.31 64.6003 133.161 64.6453 133.127L65.6831 132.738C65.6578 132.485 65.0981 132.564 64.5328 132.459C63.7031 132.31 62.9747 132.462 62.1618 132.769C61.5825 132.989 58.8262 133.575 57.7603 133.378C57.9318 132.186 58.1597 130.716 58.2778 129.955C58.545 128.195 58.6997 127.189 57.6703 126.992Z" fill="#680416"/>
<path d="M58.5169 130.122C57.8307 129.967 57.1388 129.913 56.4328 129.865L55.9519 129.831C55.9828 129.572 56.0138 129.319 56.0475 129.079C56.2894 127.389 57.0685 126.412 57.7238 126.626C58.7082 126.947 58.8207 128.195 58.5478 129.958C58.5394 130.009 58.5282 130.065 58.5169 130.122Z" fill="url(#paint58_linear_122_323)"/>
<path d="M57.991 118.956C59.3044 118.475 60.2607 119.328 60.4097 119.663C59.4141 119.784 60.1229 120.821 59.3944 121.376C58.7166 121.888 59.0372 122.657 58.8994 124.001C58.6772 126.164 56.0672 125.733 55.5863 127.671C54.6104 125.156 57.015 123.97 56.7479 122.317C56.4694 120.615 56.9054 119.356 57.991 118.956Z" fill="black"/>
<defs>
<linearGradient id="paint0_linear_122_323" x1="115.298" y1="1.32271" x2="115.298" y2="154.13" gradientUnits="userSpaceOnUse">
<stop offset="0.341346" stop-color="#FFDADD"/>
<stop offset="1" stop-color="#FF637E"/>
</linearGradient>
<linearGradient id="paint1_linear_122_323" x1="157.215" y1="109.543" x2="200.827" y2="79.1016" gradientUnits="userSpaceOnUse">
<stop offset="1"/>
</linearGradient>
<linearGradient id="paint2_linear_122_323" x1="142.358" y1="140.249" x2="172.83" y2="89.7735" gradientUnits="userSpaceOnUse">
<stop stop-color="#FF3356"/>
<stop offset="0.159" stop-color="#FF375A"/>
<stop offset="0.353" stop-color="#FF4364"/>
<stop offset="0.568" stop-color="#FF4968"/>
<stop offset="0.794" stop-color="#FF2626"/>
<stop offset="1" stop-color="#FF0000"/>
</linearGradient>
<linearGradient id="paint3_linear_122_323" x1="160.867" y1="127.415" x2="160.75" y2="127.613" gradientUnits="userSpaceOnUse">
<stop offset="0.074" stop-color="#CE2845"/>
<stop offset="0.58" stop-color="#B21833"/>
</linearGradient>
<linearGradient id="paint4_linear_122_323" x1="142.947" y1="112.781" x2="147.332" y2="111.806" gradientUnits="userSpaceOnUse">
<stop stop-color="#BB0021"/>
<stop offset="1"/>
</linearGradient>
<linearGradient id="paint5_linear_122_323" x1="121.147" y1="125.454" x2="148.575" y2="119.356" gradientUnits="userSpaceOnUse">
<stop stop-color="#BB0021"/>
<stop offset="1"/>
</linearGradient>
<linearGradient id="paint6_linear_122_323" x1="154.507" y1="136.641" x2="177.352" y2="131.563" gradientUnits="userSpaceOnUse">
<stop stop-color="#BB0021"/>
<stop offset="1"/>
</linearGradient>
<linearGradient id="paint7_linear_122_323" x1="74.3447" y1="103.868" x2="30.7267" y2="73.4347" gradientUnits="userSpaceOnUse">
<stop offset="1"/>
</linearGradient>
<linearGradient id="paint8_linear_122_323" x1="135.298" y1="159.557" x2="162.699" y2="116.157" gradientUnits="userSpaceOnUse">
<stop stop-color="#590211"/>
<stop offset="0.119" stop-color="#590413"/>
<stop offset="0.265" stop-color="#5A0A18"/>
<stop offset="0.426" stop-color="#6C1524"/>
<stop offset="0.597" stop-color="#8F2336"/>
<stop offset="0.776" stop-color="#BC354D"/>
<stop offset="0.96" stop-color="#F24C69"/>
<stop offset="1" stop-color="#FF516F"/>
</linearGradient>
<linearGradient id="paint9_linear_122_323" x1="153.424" y1="148.681" x2="153.381" y2="148.907" gradientUnits="userSpaceOnUse">
<stop offset="0.074" stop-color="#CE2845"/>
<stop offset="0.58" stop-color="#FF4968"/>
</linearGradient>
<linearGradient id="paint10_linear_122_323" x1="131.65" y1="140.914" x2="135.456" y2="138.526" gradientUnits="userSpaceOnUse">
<stop stop-color="#BB0021"/>
<stop offset="1"/>
</linearGradient>
<linearGradient id="paint11_linear_122_323" x1="115.354" y1="160.174" x2="139.164" y2="145.236" gradientUnits="userSpaceOnUse">
<stop stop-color="#BB0021"/>
<stop offset="1"/>
</linearGradient>
<linearGradient id="paint12_linear_122_323" x1="86.0107" y1="128.755" x2="22.564" y2="94.8407" gradientUnits="userSpaceOnUse">
<stop stop-color="#FF3356"/>
<stop offset="0.159" stop-color="#FF375A"/>
<stop offset="0.353" stop-color="#FF4364"/>
<stop offset="0.568" stop-color="#FF4968"/>
<stop offset="0.794" stop-color="#FF2626"/>
<stop offset="1" stop-color="#FF0000"/>
</linearGradient>
<linearGradient id="paint13_linear_122_323" x1="73.4046" y1="133.041" x2="73.6141" y2="133.136" gradientUnits="userSpaceOnUse">
<stop offset="0.074" stop-color="#CE2845"/>
<stop offset="0.58" stop-color="#B21833"/>
</linearGradient>
<linearGradient id="paint14_linear_122_323" x1="100.591" y1="159.855" x2="71.9274" y2="111.105" gradientUnits="userSpaceOnUse">
<stop stop-color="#590211"/>
<stop offset="0.119" stop-color="#590413"/>
<stop offset="0.265" stop-color="#5A0A18"/>
<stop offset="0.426" stop-color="#6C1524"/>
<stop offset="0.597" stop-color="#8F2336"/>
<stop offset="0.776" stop-color="#BC354D"/>
<stop offset="0.96" stop-color="#F24C69"/>
<stop offset="1" stop-color="#FF516F"/>
</linearGradient>
<linearGradient id="paint15_linear_122_323" x1="84.189" y1="149.033" x2="84.2525" y2="149.255" gradientUnits="userSpaceOnUse">
<stop offset="0.074" stop-color="#CE2845"/>
<stop offset="0.58" stop-color="#B21833"/>
</linearGradient>
<linearGradient id="paint16_linear_122_323" x1="105.195" y1="139.337" x2="101.19" y2="137.3" gradientUnits="userSpaceOnUse">
<stop stop-color="#BB0021"/>
<stop offset="1"/>
</linearGradient>
<linearGradient id="paint17_linear_122_323" x1="123.15" y1="157.056" x2="98.0987" y2="144.313" gradientUnits="userSpaceOnUse">
<stop stop-color="#BB0021"/>
<stop offset="1"/>
</linearGradient>
<linearGradient id="paint18_linear_122_323" x1="93.5146" y1="149.622" x2="64.6697" y2="134.949" gradientUnits="userSpaceOnUse">
<stop stop-color="#BB0021"/>
<stop offset="1"/>
</linearGradient>
<linearGradient id="paint19_linear_122_323" x1="90.1744" y1="65.6872" x2="92.6457" y2="66.8124" gradientUnits="userSpaceOnUse">
<stop stop-color="#FF3356"/>
<stop offset="0.159" stop-color="#FF375A"/>
<stop offset="0.353" stop-color="#FF4364"/>
<stop offset="0.568" stop-color="#FF4968"/>
<stop offset="0.794" stop-color="#FF2626"/>
<stop offset="1" stop-color="#FF0000"/>
</linearGradient>
<linearGradient id="paint20_linear_122_323" x1="86.8861" y1="66.4293" x2="89.0736" y2="67.4253" gradientUnits="userSpaceOnUse">
<stop stop-color="#FF3356"/>
<stop offset="0.159" stop-color="#FF375A"/>
<stop offset="0.353" stop-color="#FF4364"/>
<stop offset="0.568" stop-color="#FF4968"/>
<stop offset="0.794" stop-color="#FF2626"/>
<stop offset="1" stop-color="#FF0000"/>
</linearGradient>
<linearGradient id="paint21_linear_122_323" x1="85.0394" y1="69.7846" x2="86.9883" y2="70.672" gradientUnits="userSpaceOnUse">
<stop stop-color="#FF3356"/>
<stop offset="0.159" stop-color="#FF375A"/>
<stop offset="0.353" stop-color="#FF4364"/>
<stop offset="0.568" stop-color="#FF4968"/>
<stop offset="0.794" stop-color="#FF2626"/>
<stop offset="1" stop-color="#FF0000"/>
</linearGradient>
<linearGradient id="paint22_linear_122_323" x1="80.7917" y1="67.8997" x2="83.5589" y2="69.1597" gradientUnits="userSpaceOnUse">
<stop stop-color="#FF3356"/>
<stop offset="0.159" stop-color="#FF375A"/>
<stop offset="0.353" stop-color="#FF4364"/>
<stop offset="0.568" stop-color="#FF4968"/>
<stop offset="0.794" stop-color="#FF2626"/>
<stop offset="1" stop-color="#FF0000"/>
</linearGradient>
<linearGradient id="paint23_linear_122_323" x1="76.5689" y1="74.4433" x2="79.8031" y2="75.9158" gradientUnits="userSpaceOnUse">
<stop stop-color="#FF3356"/>
<stop offset="0.159" stop-color="#FF375A"/>
<stop offset="0.353" stop-color="#FF4364"/>
<stop offset="0.568" stop-color="#FF4968"/>
<stop offset="0.794" stop-color="#FF2626"/>
<stop offset="1" stop-color="#FF0000"/>
</linearGradient>
<linearGradient id="paint24_linear_122_323" x1="78.3435" y1="70.5238" x2="80.9545" y2="71.7126" gradientUnits="userSpaceOnUse">
<stop stop-color="#FF3356"/>
<stop offset="0.159" stop-color="#FF375A"/>
<stop offset="0.353" stop-color="#FF4364"/>
<stop offset="0.568" stop-color="#FF4968"/>
<stop offset="0.794" stop-color="#FF2626"/>
<stop offset="1" stop-color="#FF0000"/>
</linearGradient>
<linearGradient id="paint25_linear_122_323" x1="136.468" y1="67.7864" x2="133.997" y2="68.9116" gradientUnits="userSpaceOnUse">
<stop stop-color="#FF3356"/>
<stop offset="0.159" stop-color="#FF375A"/>
<stop offset="0.353" stop-color="#FF4364"/>
<stop offset="0.568" stop-color="#FF4968"/>
<stop offset="0.794" stop-color="#FF2626"/>
<stop offset="1" stop-color="#FF0000"/>
</linearGradient>
<linearGradient id="paint26_linear_122_323" x1="139.756" y1="68.5286" x2="137.568" y2="69.5245" gradientUnits="userSpaceOnUse">
<stop stop-color="#FF3356"/>
<stop offset="0.159" stop-color="#FF375A"/>
<stop offset="0.353" stop-color="#FF4364"/>
<stop offset="0.568" stop-color="#FF4968"/>
<stop offset="0.794" stop-color="#FF2626"/>
<stop offset="1" stop-color="#FF0000"/>
</linearGradient>
<linearGradient id="paint27_linear_122_323" x1="141.603" y1="71.884" x2="139.654" y2="72.7713" gradientUnits="userSpaceOnUse">
<stop stop-color="#FF3356"/>
<stop offset="0.159" stop-color="#FF375A"/>
<stop offset="0.353" stop-color="#FF4364"/>
<stop offset="0.568" stop-color="#FF4968"/>
<stop offset="0.794" stop-color="#FF2626"/>
<stop offset="1" stop-color="#FF0000"/>
</linearGradient>
<linearGradient id="paint28_linear_122_323" x1="145.85" y1="69.9987" x2="143.083" y2="71.2587" gradientUnits="userSpaceOnUse">
<stop stop-color="#FF3356"/>
<stop offset="0.159" stop-color="#FF375A"/>
<stop offset="0.353" stop-color="#FF4364"/>
<stop offset="0.568" stop-color="#FF4968"/>
<stop offset="0.794" stop-color="#FF2626"/>
<stop offset="1" stop-color="#FF0000"/>
</linearGradient>
<linearGradient id="paint29_linear_122_323" x1="150.073" y1="76.5423" x2="146.839" y2="78.0147" gradientUnits="userSpaceOnUse">
<stop stop-color="#FF3356"/>
<stop offset="0.159" stop-color="#FF375A"/>
<stop offset="0.353" stop-color="#FF4364"/>
<stop offset="0.568" stop-color="#FF4968"/>
<stop offset="0.794" stop-color="#FF2626"/>
<stop offset="1" stop-color="#FF0000"/>
</linearGradient>
<linearGradient id="paint30_linear_122_323" x1="148.298" y1="72.6227" x2="145.687" y2="73.8115" gradientUnits="userSpaceOnUse">
<stop stop-color="#FF3356"/>
<stop offset="0.159" stop-color="#FF375A"/>
<stop offset="0.353" stop-color="#FF4364"/>
<stop offset="0.568" stop-color="#FF4968"/>
<stop offset="0.794" stop-color="#FF2626"/>
<stop offset="1" stop-color="#FF0000"/>
</linearGradient>
<linearGradient id="paint31_linear_122_323" x1="116.855" y1="173.235" x2="116.855" y2="153.429" gradientUnits="userSpaceOnUse">
<stop stop-color="#FF637E"/>
<stop offset="0.118" stop-color="#FFA1AD"/>
<stop offset="0.393" stop-color="#FF637E"/>
<stop offset="0.641" stop-color="#FD586D"/>
<stop offset="0.852" stop-color="#8E0019"/>
<stop offset="1"/>
</linearGradient>
<linearGradient id="paint32_linear_122_323" x1="118.435" y1="92.5179" x2="109.925" y2="57.5858" gradientUnits="userSpaceOnUse">
<stop stop-color="white"/>
<stop offset="0.122" stop-color="#FFF1F2"/>
<stop offset="0.248" stop-color="#FFEFF0"/>
<stop offset="0.374" stop-color="#FFDADD"/>
<stop offset="0.501" stop-color="#FFBDBD"/>
<stop offset="0.629" stop-color="#FF9898"/>
<stop offset="0.758" stop-color="#FF6B6B"/>
<stop offset="0.885" stop-color="#FF3737"/>
<stop offset="1" stop-color="#FF002D"/>
</linearGradient>
<linearGradient id="paint33_linear_122_323" x1="116.32" y1="74.3828" x2="116.32" y2="38.7807" gradientUnits="userSpaceOnUse">
<stop stop-color="white"/>
<stop offset="0.122" stop-color="#FFF1F2"/>
<stop offset="0.248" stop-color="#FFEFF0"/>
<stop offset="0.374" stop-color="#FFDADD"/>
<stop offset="0.501" stop-color="#FFBDBD"/>
<stop offset="0.629" stop-color="#FF9898"/>
<stop offset="0.758" stop-color="#FF6B6B"/>
<stop offset="0.885" stop-color="#FF3737"/>
<stop offset="1" stop-color="#FF002D"/>
</linearGradient>
<linearGradient id="paint34_linear_122_323" x1="96.489" y1="85.785" x2="92.7064" y2="122.61" gradientUnits="userSpaceOnUse">
<stop stop-color="white"/>
<stop offset="0.122" stop-color="#FFF1F2"/>
<stop offset="0.248" stop-color="#FFEFF0"/>
<stop offset="0.374" stop-color="#FFDADD"/>
<stop offset="0.501" stop-color="#FFBDBD"/>
<stop offset="0.629" stop-color="#FF9898"/>
<stop offset="0.758" stop-color="#FF6B6B"/>
<stop offset="0.885" stop-color="#FF3737"/>
<stop offset="1" stop-color="#FF002D"/>
</linearGradient>
<linearGradient id="paint35_linear_122_323" x1="127.648" y1="87.6879" x2="139.623" y2="121.356" gradientUnits="userSpaceOnUse">
<stop stop-color="white"/>
<stop offset="0.122" stop-color="#FFF1F2"/>
<stop offset="0.248" stop-color="#FFEFF0"/>
<stop offset="0.374" stop-color="#FFDADD"/>
<stop offset="0.501" stop-color="#FFBDBD"/>
<stop offset="0.629" stop-color="#FF9898"/>
<stop offset="0.758" stop-color="#FF6B6B"/>
<stop offset="0.885" stop-color="#FF3737"/>
<stop offset="1" stop-color="#FF002D"/>
</linearGradient>
<linearGradient id="paint36_linear_122_323" x1="116.128" y1="90.1207" x2="116.128" y2="130.735" gradientUnits="userSpaceOnUse">
<stop stop-color="#FF1D1D"/>
<stop offset="0.114" stop-color="#EF1B1B"/>
<stop offset="0.337" stop-color="#C61534"/>
<stop offset="0.647" stop-color="#820C21"/>
<stop offset="1" stop-color="#2E0008"/>
</linearGradient>
<linearGradient id="paint37_linear_122_323" x1="116.557" y1="144.364" x2="116.557" y2="102.914" gradientUnits="userSpaceOnUse">
<stop/>
<stop offset="0.101" stop-color="#050203"/>
<stop offset="0.224" stop-color="#140A0C"/>
<stop offset="0.36" stop-color="#2D1519"/>
<stop offset="0.505" stop-color="#50252D"/>
<stop offset="0.657" stop-color="#7D3A46"/>
<stop offset="0.814" stop-color="#B45465"/>
<stop offset="0.974" stop-color="#F47272"/>
<stop offset="1" stop-color="#FF7777"/>
</linearGradient>
<linearGradient id="paint38_linear_122_323" x1="70.7743" y1="142.171" x2="122.574" y2="142.171" gradientUnits="userSpaceOnUse">
<stop stop-color="#42181F"/>
<stop offset="0.461" stop-color="#4B0C17"/>
<stop offset="1" stop-color="#54000F"/>
</linearGradient>
<linearGradient id="paint39_linear_122_323" x1="119.143" y1="158.47" x2="147.218" y2="158.47" gradientUnits="userSpaceOnUse">
<stop stop-color="white"/>
<stop offset="0.122" stop-color="#FFF1F2"/>
<stop offset="0.248" stop-color="#FFEFF0"/>
<stop offset="0.374" stop-color="#FFDADD"/>
<stop offset="0.501" stop-color="#FFBDBD"/>
<stop offset="0.629" stop-color="#FF9898"/>
<stop offset="0.758" stop-color="#FF6B6B"/>
<stop offset="0.885" stop-color="#FF3737"/>
<stop offset="1" stop-color="#FF002D"/>
</linearGradient>
<linearGradient id="paint40_linear_122_323" x1="111.836" y1="142.486" x2="163.635" y2="142.486" gradientUnits="userSpaceOnUse">
<stop stop-color="#42181F"/>
<stop offset="0.461" stop-color="#4B0C17"/>
<stop offset="1" stop-color="#262626"/>
</linearGradient>
<linearGradient id="paint41_linear_122_323" x1="114.679" y1="150.811" x2="73.9552" y2="166.337" gradientUnits="userSpaceOnUse">
<stop stop-color="white"/>
<stop offset="0.122" stop-color="#FFF1F2"/>
<stop offset="0.248" stop-color="#FFEFF0"/>
<stop offset="0.374" stop-color="#FFDADD"/>
<stop offset="0.501" stop-color="#FFBDBD"/>
<stop offset="0.629" stop-color="#FF9898"/>
<stop offset="0.758" stop-color="#FF6B6B"/>
<stop offset="0.885" stop-color="#FF3737"/>
<stop offset="1" stop-color="#FF002D"/>
</linearGradient>
<linearGradient id="paint42_linear_122_323" x1="158.642" y1="109.786" x2="171.669" y2="132.22" gradientUnits="userSpaceOnUse">
<stop stop-color="#FF002D"/>
<stop offset="0.067" stop-color="#DE2848"/>
<stop offset="0.162" stop-color="#B55A6A"/>
<stop offset="0.262" stop-color="#90626A"/>
<stop offset="0.365" stop-color="#AB6370"/>
<stop offset="0.472" stop-color="#CA586C"/>
<stop offset="0.584" stop-color="#E14561"/>
<stop offset="0.703" stop-color="#F23758"/>
<stop offset="0.834" stop-color="#FC2F53"/>
<stop offset="1" stop-color="#FF2C52"/>
</linearGradient>
<linearGradient id="paint43_linear_122_323" x1="163.389" y1="128.079" x2="162.613" y2="141.782" gradientUnits="userSpaceOnUse">
<stop stop-color="#72333E"/>
<stop offset="0.143" stop-color="#773642"/>
<stop offset="0.318" stop-color="#863745"/>
<stop offset="0.511" stop-color="#9F2B40"/>
<stop offset="0.716" stop-color="#C21C3A"/>
<stop offset="0.929" stop-color="#EE0808"/>
<stop offset="1" stop-color="#FF0000"/>
</linearGradient>
<linearGradient id="paint44_linear_122_323" x1="153.81" y1="108.723" x2="166.837" y2="131.157" gradientUnits="userSpaceOnUse">
<stop stop-color="#FF002D"/>
<stop offset="0.151" stop-color="#FC032F"/>
<stop offset="0.28" stop-color="#F40E37"/>
<stop offset="0.401" stop-color="#E52043"/>
<stop offset="0.517" stop-color="#D03853"/>
<stop offset="0.63" stop-color="#B6596A"/>
<stop offset="0.74" stop-color="#95626B"/>
<stop offset="0.847" stop-color="#AF6371"/>
<stop offset="0.951" stop-color="#E3435F"/>
<stop offset="1" stop-color="#FF2C52"/>
</linearGradient>
<linearGradient id="paint45_linear_122_323" x1="152.437" y1="103.23" x2="164.531" y2="103.23" gradientUnits="userSpaceOnUse">
<stop stop-color="#DA8888"/>
<stop offset="0.008" stop-color="#D98989"/>
<stop offset="0.478" stop-color="#D9BBBB"/>
<stop offset="0.822" stop-color="#F0A7A7"/>
<stop offset="1" stop-color="#FFA0A0"/>
</linearGradient>
<linearGradient id="paint46_linear_122_323" x1="157.324" y1="127.103" x2="162.227" y2="117.709" gradientUnits="userSpaceOnUse">
<stop stop-color="#FF002D"/>
<stop offset="0.118" stop-color="#FB0430"/>
<stop offset="0.242" stop-color="#F11139"/>
<stop offset="0.37" stop-color="#DF2647"/>
<stop offset="0.5" stop-color="#E94663"/>
<stop offset="0.632" stop-color="#A7616D"/>
<stop offset="0.765" stop-color="#99636D"/>
<stop offset="0.897" stop-color="#CF546A"/>
<stop offset="1" stop-color="#FF2C52"/>
</linearGradient>
<linearGradient id="paint47_linear_122_323" x1="163.33" y1="133.836" x2="164.121" y2="133.836" gradientUnits="userSpaceOnUse">
<stop offset="0.041" stop-color="#600011"/>
<stop offset="1" stop-color="#960922"/>
</linearGradient>
<linearGradient id="paint48_linear_122_323" x1="79.563" y1="103.456" x2="86.5617" y2="90.478" gradientUnits="userSpaceOnUse">
<stop stop-color="#DA8888"/>
<stop offset="0.008" stop-color="#D98989"/>
<stop offset="0.478" stop-color="#D9BBBB"/>
<stop offset="0.822" stop-color="#F0A7A7"/>
<stop offset="1" stop-color="#FFA0A0"/>
</linearGradient>
<linearGradient id="paint49_linear_122_323" x1="77.1876" y1="116.076" x2="78.0375" y2="107.101" gradientUnits="userSpaceOnUse">
<stop offset="0.041" stop-color="#EB002A"/>
<stop offset="1" stop-color="#FF002D"/>
</linearGradient>
<linearGradient id="paint50_linear_122_323" x1="76.2959" y1="106.589" x2="78.5836" y2="98.6483" gradientUnits="userSpaceOnUse">
<stop offset="0.193" stop-color="#2F0910"/>
<stop offset="0.681" stop-color="#7A2534"/>
</linearGradient>
<linearGradient id="paint51_linear_122_323" x1="182.953" y1="140.047" x2="170.618" y2="128.391" gradientUnits="userSpaceOnUse">
<stop stop-color="#DA8888"/>
<stop offset="0.008" stop-color="#D98989"/>
<stop offset="0.478" stop-color="#D9BBBB"/>
<stop offset="0.822" stop-color="#F0A7A7"/>
<stop offset="1" stop-color="#FFA0A0"/>
</linearGradient>
<linearGradient id="paint52_linear_122_323" x1="186.075" y1="140.94" x2="187.599" y2="128.617" gradientUnits="userSpaceOnUse">
<stop stop-color="#FF3356"/>
<stop offset="0.159" stop-color="#FF375A"/>
<stop offset="0.353" stop-color="#FF4364"/>
<stop offset="0.568" stop-color="#FF4968"/>
<stop offset="0.794" stop-color="#FF2626"/>
<stop offset="1" stop-color="#FF0000"/>
</linearGradient>
<linearGradient id="paint53_linear_122_323" x1="187.421" y1="129.721" x2="187.701" y2="133.763" gradientUnits="userSpaceOnUse">
<stop stop-color="#FF3356"/>
<stop offset="0.159" stop-color="#FF375A"/>
<stop offset="0.353" stop-color="#FF4364"/>
<stop offset="0.568" stop-color="#FF4968"/>
<stop offset="0.794" stop-color="#FF2626"/>
<stop offset="1" stop-color="#FF0000"/>
</linearGradient>
<linearGradient id="paint54_linear_122_323" x1="61.6877" y1="136.713" x2="73.728" y2="123.748" gradientUnits="userSpaceOnUse">
<stop stop-color="#DA8888"/>
<stop offset="0.008" stop-color="#D98989"/>
<stop offset="0.478" stop-color="#D9BBBB"/>
<stop offset="0.822" stop-color="#F0A7A7"/>
<stop offset="1" stop-color="#FFA0A0"/>
</linearGradient>
<linearGradient id="paint55_linear_122_323" x1="60.914" y1="148.146" x2="48.3486" y2="148.146" gradientUnits="userSpaceOnUse">
<stop stop-color="#41131B"/>
<stop offset="0.23" stop-color="#C21332"/>
<stop offset="0.348" stop-color="#C51837"/>
<stop offset="0.493" stop-color="#CC2744"/>
<stop offset="0.652" stop-color="#D81F40"/>
<stop offset="0.822" stop-color="#E91238"/>
<stop offset="0.998" stop-color="#FF0000"/>
<stop offset="1" stop-color="#FF0000"/>
</linearGradient>
<linearGradient id="paint56_linear_122_323" x1="56.8803" y1="133.534" x2="60.2726" y2="150.987" gradientUnits="userSpaceOnUse">
<stop stop-color="#FF3356"/>
<stop offset="0.159" stop-color="#FF375A"/>
<stop offset="0.353" stop-color="#FF4364"/>
<stop offset="0.568" stop-color="#FF4968"/>
<stop offset="0.794" stop-color="#FF2626"/>
<stop offset="1" stop-color="#FF0000"/>
</linearGradient>
<linearGradient id="paint57_linear_122_323" x1="59.0361" y1="138.952" x2="57.3188" y2="125.07" gradientUnits="userSpaceOnUse">
<stop offset="0.041" stop-color="#EB002A"/>
<stop offset="1" stop-color="#FF002D"/>
</linearGradient>
<linearGradient id="paint58_linear_122_323" x1="57.5187" y1="126.314" x2="57.2037" y2="130.868" gradientUnits="userSpaceOnUse">
<stop stop-color="#FF002D"/>
<stop offset="0.151" stop-color="#FC032F"/>
<stop offset="0.28" stop-color="#F40E37"/>
<stop offset="0.401" stop-color="#E52043"/>
<stop offset="0.517" stop-color="#D03853"/>
<stop offset="0.63" stop-color="#B6596A"/>
<stop offset="0.74" stop-color="#95626B"/>
<stop offset="0.847" stop-color="#AF6371"/>
<stop offset="0.951" stop-color="#E3435F"/>
<stop offset="1" stop-color="#FF2C52"/>
</linearGradient>
</defs>
</svg>
